<svg xmlns="http://www.w3.org/2000/svg" xmlns:xlink="http://www.w3.org/1999/xlink" viewBox="0 0 197.88 207.81"><defs><style>.cls-1{fill:none;}.cls-2{fill:#fdedee;}.cls-3{clip-path:url(#clip-path);}.cls-4{fill:#f19c7c;}.cls-5{fill:#d67558;}.cls-6{fill:#efa084;}.cls-7{fill:#5d8584;}.cls-8{fill:#76413b;}.cls-9{fill:#d85e41;}.cls-10{fill:#161114;}</style><clipPath id="clip-path"><path class="cls-1" d="M97.26,202.43q-41.58-.93-70.12-29.51A89.94,89.94,0,0,1,2.39,127.25a104.84,104.84,0,0,1,2.22-53,106.75,106.75,0,0,1,27-45.37Q59.5,1,97.25,0t68.84,30.13q30.47,30.47,31.73,71.7t-28.55,71.07Q138.82,203.38,97.26,202.43Z"/></clipPath></defs><g id="Calque_2" data-name="Calque 2"><g id="OBJECTS"><path class="cls-2" d="M97.26,202.43q-41.58-.93-70.12-29.51A89.94,89.94,0,0,1,2.39,127.25a104.84,104.84,0,0,1,2.22-53,106.75,106.75,0,0,1,27-45.37Q59.5,1,97.25,0t68.84,30.13q30.47,30.47,31.73,71.7t-28.55,71.07Q138.82,203.38,97.26,202.43Z"/><g class="cls-3"><path class="cls-4" d="M120.34,146c-6.83-5.59-.49-37.62-.49-37.62H81.17s6.34,32-.49,37.62S29,150.9,33.14,207.22H164.69C169.77,150.75,127.16,151.57,120.34,146Z"/><path class="cls-5" d="M118.37,142.78c-3.38-9.86,1.48-34.42,1.48-34.42H81.17s2.61,13.21,2.67,24.14C93.58,139.86,105.82,142.77,118.37,142.78Z"/><path class="cls-6" d="M110.92,178.2c-24.72,0-49.55-.6-74.31-.48a58,58,0,0,0-3.54,16.83c20.13,6.27,72,18.41,132,1.25a61.27,61.27,0,0,0-2.88-17.6Z"/><path class="cls-7" d="M179.34,184.67c-2.38-38.43-46.12-34.81-46.12-34.81v0l-.27,0s-6.18,17.65-34.15,17.79c-28-.14-34.15-17.79-34.15-17.79s-49-5-46.13,34.81c0,0,10.89,8.71,30.14,12.12-.65,3.39-1.5,6.94-2.59,10.65l52.4.37h.65l50.84-.36c-1.06-3.61-1.89-7.07-2.53-10.37C167.78,193.91,179.34,184.67,179.34,184.67Z"/><path class="cls-5" d="M57.55,95.71c1.9,6.94,7.24,13.09,11.44,11.94s5.66-9.16,3.76-16.1-6.44-10.18-10.63-9S55.65,88.76,57.55,95.71Z"/><path class="cls-5" d="M143.05,95.71c-1.9,6.94-7.24,13.09-11.44,11.94s-5.66-9.16-3.77-16.1,6.44-10.18,10.64-9S144.94,88.76,143.05,95.71Z"/><path class="cls-4" d="M65.49,84.87c.14,39.12,15.7,53.37,35.07,53.37s35.07-14.94,35.08-53.37c0-26.41-15.7-42.28-35.08-42.28S65.39,58.46,65.49,84.87Z"/><path class="cls-8" d="M66,96.24l1.67-22.67S74,70.9,74,60.9a12.68,12.68,0,0,0,8.34,6l-1.67-4,5.67,5.34s3.33-.67,5.33-5.34c0,0,0,5.34-1.67,6.34,0,0,6.34,1.33,9-6.34,0,0-.33,5-2.66,7.67,0,0,8,.67,8.33-7.33,0,0,.33,5.33,4,6.33L109,62.9s2,5,6.67,6.67c0,0,2.33-3,1-8.33,0,0,2.67,5.33,2,9.66,0,0,6.67-3.83,4.67-9.5,0,0,1.83,9.17,9.5,10.84,0,0,.83,15.66,2.16,23.66,0,0,2.69-6.71,2.5-13a3.41,3.41,0,0,1,2.34.17s13.5-46.17-32.17-49.83c-50.42-4.05-49.33,35.83-47,50a2.48,2.48,0,0,1,3,1.33S62.8,93.57,66,96.24Z"/><path class="cls-9" d="M102,89.24c.28.75.57,1.48.88,2.21s.61,1.45.9,2.18L105.58,98c.6,1.45,1.25,2.87,1.86,4.3.31.72.64,1.42,1,2.11a19.37,19.37,0,0,0,1,2l.51.85-.79.52c-.63.4-1.28.78-2,1.14a14.85,14.85,0,0,1-2.11,1c-.36.14-.73.24-1.1.35a8.69,8.69,0,0,1-1.12.27,10.25,10.25,0,0,1-1.13.2c-.37,0-.76.08-1.14.11.66-.4,1.33-.75,2-1.12s1.28-.72,1.89-1.11,1.21-.79,1.81-1.18,1.18-.86,1.8-1.27l-.28,1.36a21.68,21.68,0,0,1-1.22-2.18c-.35-.73-.66-1.47-1-2.2s-.61-1.48-.87-2.23L104,98.57c-.24-.76-.47-1.52-.68-2.29s-.41-1.54-.6-2.31-.33-1.56-.47-2.35A19.24,19.24,0,0,1,102,89.24Z"/><path class="cls-9" d="M90.46,116.73s.32.24.9.6c.29.18.65.38,1.06.61s.88.45,1.4.68,1.1.42,1.69.66,1.25.39,1.94.51a7.07,7.07,0,0,0,1,.2l1.07.13c.71.09,1.45,0,2.18.08s1.47-.06,2.19-.19,1.43-.2,2.11-.39,1.33-.36,2-.51,1.19-.43,1.74-.61l.79-.26.69-.29c.44-.19.83-.33,1.15-.46l1-.37s-.29.27-.82.72c-.27.22-.59.49-1,.79l-.61.48-.74.44c-.52.31-1.08.64-1.69,1s-1.32.56-2,.82a19.65,19.65,0,0,1-2.29.6c-.79.17-1.63.19-2.45.29s-1.66,0-2.47-.16a12.57,12.57,0,0,1-2.33-.55,13.12,13.12,0,0,1-2-.85,12.1,12.1,0,0,1-1.68-1A10.45,10.45,0,0,1,92,118.56a8.57,8.57,0,0,1-.86-.93A6.52,6.52,0,0,1,90.46,116.73Z"/><path class="cls-8" d="M105.63,86.57a5.91,5.91,0,0,1,.48-1.11,10.14,10.14,0,0,1,.73-1.19,12.23,12.23,0,0,1,1.16-1.4l.75-.74c.28-.23.59-.46.9-.7a7.33,7.33,0,0,1,1-.66,12.06,12.06,0,0,1,1.13-.6,11.89,11.89,0,0,1,2.59-.83,7.28,7.28,0,0,1,1.4-.21l1.44,0a7.53,7.53,0,0,1,1.42.16c.46.08.93.17,1.38.27a23.7,23.7,0,0,1,2.5,1c.73.45,1.42.9,2.06,1.34s1.09,1,1.55,1.5c.23.24.45.46.65.69l.48.7c.31.44.55.84.74,1.17a11.29,11.29,0,0,1,.57,1s-.43-.16-1.11-.47c-.34-.16-.75-.34-1.19-.58l-.7-.36-.81-.33c-.55-.23-1.12-.51-1.72-.78s-1.27-.41-1.91-.67-1.35-.3-2-.5c-.34,0-.68-.06-1-.12a4.53,4.53,0,0,0-1-.09,11.8,11.8,0,0,0-2.06.07,15.19,15.19,0,0,0-2,.33c-.33.06-.64.19-1,.27a6.88,6.88,0,0,0-.94.3l-.9.32-.84.36c-.55.21-1,.47-1.5.67s-.85.41-1.16.59Z"/><path class="cls-8" d="M71.41,87.76a1.75,1.75,0,0,1,.07-.32,5.79,5.79,0,0,1,.27-.9,10.84,10.84,0,0,1,.6-1.33,11.16,11.16,0,0,1,1.05-1.6A11.69,11.69,0,0,1,75,81.94a10.62,10.62,0,0,1,1-.77l.55-.38.62-.31a12.79,12.79,0,0,1,1.3-.58c.46-.14.93-.28,1.42-.4a6.52,6.52,0,0,1,1.47-.21,12.62,12.62,0,0,1,1.5-.06l1.48.17c.25,0,.49.06.73.11l.69.21a11.35,11.35,0,0,1,2.58,1A17.78,17.78,0,0,1,90.53,82c.62.5,1.19,1,1.7,1.44a8.72,8.72,0,0,1,1.26,1.37c.36.42.64.81.87,1.13a10.62,10.62,0,0,1,.69,1s-.45-.13-1.18-.42c-.37-.14-.81-.3-1.29-.52A14.86,14.86,0,0,0,91,85.4c-.6-.21-1.23-.46-1.87-.73s-1.36-.4-2-.65a15.66,15.66,0,0,0-2.15-.52l-.54-.13-.55,0-1.09-.1a9.55,9.55,0,0,0-1.07,0,6.23,6.23,0,0,0-1.06.07c-.34.07-.69.12-1,.16s-.66.2-1,.28l-.5.13-.48.19c-.31.13-.63.23-.94.37-.58.3-1.18.56-1.69.89s-1,.62-1.45.89-.81.55-1.1.79-.56.41-.72.55Z"/><path class="cls-10" d="M86,96.14c0,2.76-.76,5-1.71,5s-1.7-2.24-1.7-5,.76-5,1.7-5S86,93.38,86,96.14Z"/><path class="cls-10" d="M117.81,95.46c0,2.76-.76,5-1.71,5s-1.7-2.24-1.7-5,.76-5,1.7-5S117.81,92.7,117.81,95.46Z"/></g></g></g></svg>