<?xml version="1.0" encoding="UTF-8"?>
<svg id="Calque_2" data-name="Calque 2" xmlns="http://www.w3.org/2000/svg" xmlns:xlink="http://www.w3.org/1999/xlink" viewBox="0 0 252.3 203.81">
  <defs>
    <linearGradient id="Dégradé_sans_nom_2" data-name="Dégradé sans nom 2" x1="-432.12" y1="662.15" x2="-432.12" y2="661.15" gradientTransform="translate(70676.45 74763.46) scale(163.36 -112.77)" gradientUnits="userSpaceOnUse">
      <stop offset="0" stop-color="#000" stop-opacity="0"/>
      <stop offset="1" stop-color="#000"/>
    </linearGradient>
  </defs>
  <g id="Calque_1-2" data-name="Calque 1">
    <path d="m165.79,128.47c-2.25,2.67-4.68,2.63-6.12,2.25l.05-1.38s5.98-2.73,5.83-2.16c-.06.21.06.73.24,1.29h0Zm16.39,3.02c-3.82,2.21-6.06-.38-6.58-1.11.32-.84.8-2.2.7-2.59-.14-.58,5.83,2.15,5.83,2.15l.05,1.55Zm-4.09-22.01s3.63-2.09,4.42-1.15c.79.94-4.42,1.15-4.42,1.15Zm2.19,1.15s-.6.3.72.68c1.32.38-.72-.68-.72-.68Zm-21.96-5.76c-.12.04,3.02,2.12,5.86.4-.01,0-5.15-.61-5.86-.4Zm5.71,3.99s-.86,1.69-2.62,1.94c-1.76.25,2.62-1.94,2.62-1.94Zm11.55,3.67s4.14,6.58,3.35,8.13c-.79,1.55-3.35-8.13-3.35-8.13Zm-8.17,26.15c0,.37,0,.71-.04,1-.11,1.33-3.38.83-3.38.83-2.99.42-4.07-1.02-4.42-2.39-.11-.45-.17-.9-.16-1.36-.23-14.91,11.68-27.18,26.59-27.41,14.91-.23,27.18,11.68,27.41,26.59v-.27c.64-.19,1.34-.05,1.86.38,1.33,1.08,3.1.25,3.1.25,0,0,1.29.11,1.79.54.28.24.74-.34,1.1-.9.02.36.05,1.01.07,1.7.02.36.03.71.03,1.05h-53.95Z" style="fill: #ff4842; isolation: isolate; opacity: .05;"/>
    <path d="m30.38,201.74c-.72-.87-1.06-2.01-.92-3.13l13.2-107.98,1.09-8.97c.25-2.06,2-3.62,4.08-3.63l38.65-.26c2.28-.01,4.12-1.88,4.11-4.16,0-.03,0-.06,0-.09v-.41c-.09-2.29,1.7-4.2,3.98-4.28.05,0,.09,0,.14,0h40.62c2.28,0,4.13,1.85,4.13,4.13,0,.18-.01.37-.04.55-.3,2.26,1.29,4.35,3.55,4.65.15.02.29.03.44.03l39.01,1c2.28.06,4.08,1.95,4.03,4.23,0,.2-.02.4-.06.6l-19.5,113.91-.37,2.15c-.09.55-.29,1.08-.6,1.54l-135.56.11h0Z" style="fill: #004b50;"/>
    <path d="m148.1,45.96l18.79,12.98-44.07,63.78-18.79-12.98,44.07-63.78Z" style="fill: #fff;"/>
    <path d="m149.45,48.98l13.24,9.2-9.2,13.24-13.24-9.2,9.2-13.24Z" style="fill: #ffc107;"/>
    <path d="m139.08,64.93l13.29,9.18-9.18,13.29-13.29-9.18,9.18-13.29Z" style="fill: #ffc107; isolation: isolate; opacity: .5;"/>
    <path d="m128,80.97l13.29,9.18-9.18,13.29-13.29-9.18,9.18-13.29Z" style="fill: #ffc107; isolation: isolate; opacity: .3;"/>
    <path d="m121.55,41.96l21.92,6.41-21.66,74.13-21.92-6.41,21.66-74.13Z" style="fill: #fff;"/>
    <path d="m124.43,44.1l15.5,4.53-4.53,15.5-15.5-4.53,4.53-15.5Z" style="fill: #ff4842;"/>
    <path d="m118.96,62.81l15.5,4.53-4.53,15.5-15.5-4.53,4.53-15.5Z" style="fill: #ff4842; isolation: isolate; opacity: .5;"/>
    <path d="m113.49,81.52l15.5,4.53-4.53,15.5-15.5-4.53,4.53-15.5Z" style="fill: #ff4842; isolation: isolate; opacity: .3;"/>
    <path d="m106.02,43.13l22.77,1.83-6.19,76.98-22.77-1.83,6.19-76.98Z" style="fill: #fff;"/>
    <path d="m109.26,44.64l16.1,1.3-1.3,16.1-16.1-1.3,1.3-16.1Z" style="fill: #1890ff;"/>
    <path d="m107.69,64.07l16.1,1.3-1.3,16.1-16.1-1.3,1.3-16.1Z" style="fill: #1890ff; isolation: isolate; opacity: .5;"/>
    <path d="m106.13,83.5l16.1,1.3-1.3,16.1-16.1-1.3,1.3-16.1Z" style="fill: #1890ff; isolation: isolate; opacity: .3;"/>
    <path d="m95.78,46.22l22.82-1.04,3.52,77.15-22.82,1.04-3.52-77.15Z" style="fill: #fff;"/>
    <path d="m99.18,47.32l16.13-.74.74,16.13-16.13.74-.74-16.13Z" style="fill: #00a76f;"/>
    <path d="m100.7,66.17l16.15-.81.81,16.15-16.15.81-.81-16.15Z" style="fill: #00a76f; isolation: isolate; opacity: .5;"/>
    <path d="m100.95,86.26l16.13-.74.74,16.13-16.13.74-.74-16.13Z" style="fill: #00a76f; isolation: isolate; opacity: .3;"/>
    <path d="m105.46,148.01l-20.29,7.85-29.66,11.47c-1.12-2.09-2.77-4.92-4.81-8.3-7.03-11.64-18.65-29.75-29-45.67C10.04,95.42,0,80.29,0,80.29l7.26-2.09,59.35-17.23,38.85,87.04h0Z" style="fill: #f4f6f8;"/>
    <path d="m105.46,148.01l-20.29,7.85c-11.34,2.36-22.91,3.43-34.48,3.17-7.03-11.64-18.65-29.75-29-45.67l-14.42-35.18,59.34-17.22,38.85,87.04Z" style="isolation: isolate; opacity: .1;"/>
    <path d="m120.56,143.12s-31.53,18.65-78.6,14.43L4.44,66.07l17.98-3.09,62.17-10.68,35.28,89.04.69,1.78h0Z" style="fill: #00a76f;"/>
    <path d="m119.86,141.35c-7.42.37-16.01.33-24.65-.7-9.35-1.1-18.76-3.37-26.82-7.52-6.74-3.47-12.51-7.25-17.53-11.78-13.07-11.76-21.16-28.58-28.43-58.37l62.17-10.68,35.27,89.04h0Z" style="fill: #ff4842; isolation: isolate; opacity: .1;"/>
    <path d="m142.99,136.24s-23.24,4.55-46.89,1.75c-9.35-1.1-18.76-3.37-26.82-7.52-6.74-3.47-12.5-7.25-17.53-11.78-16.18-14.56-24.73-36.87-33.54-81.92,0,0,38.63,9.32,76.84-11.1-.01.01,12.87,80.37,47.95,110.57Z" style="fill: #fff;"/>
    <path d="m38.19,53.31s31.42-1.78,40.19-8.55l1.33,4.28s-20.76,9.16-41.52,9.27v-5h0Zm0,21.11s30.42-1.66,53.4-12.77l.78,1.78s-18.24,10.65-54.18,13.43v-2.44Zm2.45,8.23s30.42-1.66,53.4-12.77l.78,1.78s-18.24,10.64-54.17,13.43v-2.44Zm2.45,8.24s30.42-1.67,53.4-12.77l.77,1.77s-18.24,10.65-54.17,13.43v-2.44h0Zm2.45,8.24s30.42-1.66,53.4-12.77l.78,1.78s-18.24,10.65-54.17,13.43v-2.44h0Zm2.44,8.24s30.42-1.66,53.4-12.77l.77,1.78s-18.24,10.64-54.17,13.43v-2.44Z" style="fill: #00a76f; isolation: isolate; opacity: .3;"/>
    <rect x="176.71" y="-8.51" width="51.03" height="91.31" rx="4.74" ry="4.74" transform="translate(104.37 217.98) rotate(-71.99)" style="fill: #fff;"/>
    <circle cx="176.4" cy="25.79" r="9.38" style="fill: #00a76f; isolation: isolate; opacity: .2;"/>
    <path d="m198.83,24.1l.79-2.44,38.85,12.63-.79,2.44-38.85-12.63Z" style="fill: #00a76f; isolation: isolate; opacity: .2;"/>
    <path d="m196.81,30.33l.79-2.44,19.79,6.43-.79,2.44-19.79-6.43Z" style="fill: #00a76f; isolation: isolate; opacity: .2;"/>
    <path d="m194.78,36.56l.79-2.44,32.01,10.41-.79,2.44-32.01-10.41Z" style="fill: #00a76f; isolation: isolate; opacity: .2;"/>
    <path d="m192.75,42.79l.79-2.44,38.85,12.63-.79,2.44-38.85-12.63Z" style="fill: #00a76f; isolation: isolate; opacity: .2;"/>
    <path d="m217.19,63.19l1.54-4.72,10.75,3.5-1.54,4.72-10.75-3.5Z" style="fill: #00a76f; isolation: isolate; opacity: .5;"/>
    <rect x="164.34" y="96.77" width="50.3" height="78.3" rx="4" ry="4" transform="translate(-27.31 221.81) rotate(-57.27)" style="fill: #fff;"/>
    <path d="m152.71,132.95l7.63-12.01,2.83,1.8-7.63,12.01-2.83-1.8Z" style="fill: #dfe3e8;"/>
    <path d="m161.74,135.38l16.76-26.38,2.59,1.65-16.76,26.38-2.59-1.65Z" style="fill: #dfe3e8;"/>
    <path d="m167.28,138.9l16.76-26.38,2.59,1.65-16.76,26.38-2.59-1.65Z" style="fill: #dfe3e8;"/>
    <path d="m172.82,142.42l16.76-26.38,2.59,1.65-16.76,26.38-2.59-1.65Z" style="fill: #dfe3e8;"/>
    <path d="m178.54,147.52l16.88-26.25,2.58,1.66-16.88,26.25-2.58-1.66Z" style="fill: #dfe3e8;"/>
    <path d="m183.89,149.45l16.76-26.38,2.59,1.65-16.76,26.38-2.59-1.65Z" style="fill: #f4f6f8;"/>
    <path d="m189.42,152.96l16.76-26.38,2.59,1.65-16.76,26.38-2.59-1.65Z" style="fill: #f4f6f8;"/>
    <path d="m212.66,137.98l4.34-6.83,6.83,4.34-4.34,6.83-6.83-4.34Z" style="fill: #dfe3e8;"/>
    <path d="m142.06,91.04l-45.77.49c-1.71.02-3.09,1.41-3.09,3.12v3.78c0,1.7-1.35,3.08-3.05,3.12l-33.02.79c-1.44.04-2.72-.92-3.1-2.31l-1.55-5.7c-.37-1.38-1.63-2.33-3.05-2.31l-44.11.48c-1.73.02-3.11,1.43-3.09,3.16,0,.16.02.33.04.49l17.75,104.45c.26,1.5,1.55,2.6,3.07,2.6l139.36.6c1.73,0,3.13-1.39,3.14-3.12,0-.2-.02-.4-.06-.59l-20.37-106.52c-.28-1.48-1.59-2.55-3.1-2.54h0Z" style="fill: #00a76f;"/>
    <path d="m142.06,91.04l-45.77.49c-1.71.02-3.09,1.41-3.09,3.12v3.78c0,1.7-1.35,3.08-3.05,3.12l-33.02.79c-1.44.04-2.72-.92-3.1-2.31l-1.55-5.7c-.37-1.38-1.63-2.33-3.05-2.31l-44.11.48c-1.73.02-3.11,1.43-3.09,3.16,0,.16.02.33.04.49l17.75,104.45c.26,1.5,1.55,2.6,3.07,2.6l139.36.6c1.73,0,3.13-1.39,3.14-3.12,0-.2-.02-.4-.06-.59l-20.37-106.52c-.28-1.48-1.59-2.55-3.1-2.54h0Z" style="fill: #007867; isolation: isolate; opacity: .24;"/>
    <path d="m142.06,91.04l-45.77.49c-1.71.02-3.09,1.41-3.09,3.12v3.78c0,1.7-1.35,3.08-3.05,3.12l-33.02.79c-1.44.04-2.72-.92-3.1-2.31l-1.55-5.7c-.37-1.38-1.63-2.33-3.05-2.31l-44.11.48c-1.73.02-3.11,1.43-3.09,3.16,0,.16.02.33.04.49l17.75,104.45c.26,1.5,1.55,2.6,3.07,2.6l139.36.6c1.73,0,3.13-1.39,3.14-3.12,0-.2-.02-.4-.06-.59l-20.37-106.52c-.28-1.48-1.59-2.55-3.1-2.54h0Z" style="fill: url(#Dégradé_sans_nom_2); isolation: isolate; opacity: .32;"/>
    <path d="m78.82,132.19c-7.98,0-14.44,6.46-14.44,14.44s6.46,14.44,14.44,14.44,14.44-6.46,14.44-14.44-6.46-14.44-14.44-14.44Z" style="fill: #007867;"/>
    <path d="m78.82,133.87c7.05,0,12.76,5.71,12.76,12.76s-5.71,12.76-12.76,12.76-12.76-5.71-12.76-12.76c0-7.04,5.72-12.75,12.76-12.76" style="fill: #00a76f; isolation: isolate; opacity: .72;"/>
  </g>
</svg>