<?xml version="1.0" encoding="UTF-8"?>
<svg id="Calque_2" data-name="Calque 2" xmlns="http://www.w3.org/2000/svg" xmlns:xlink="http://www.w3.org/1999/xlink" viewBox="0 0 241.35 234.51">
  <defs>
    <linearGradient id="Dégradé_sans_nom_2" data-name="Dégradé sans nom 2" x1="-430.83" y1="670.12" x2="-430.83" y2="669.12" gradientTransform="translate(87625.5 54890.49) rotate(-15) scale(163.36 -112.77)" gradientUnits="userSpaceOnUse">
      <stop offset="0" stop-color="#000" stop-opacity="0"/>
      <stop offset="1" stop-color="#000"/>
    </linearGradient>
  </defs>
  <g id="Calque_1-2" data-name="Calque 1">
    <path d="m172.61,125.28c-1.48,3.16-3.84,3.75-5.33,3.76l-.31-1.35s5.07-4.19,5.07-3.59c0,.22.24.69.57,1.19h0Zm16.61-1.32c-3.12,3.12-5.95,1.2-6.64.63.09-.89.2-2.34,0-2.69-.29-.52,6.19.57,6.19.57l.45,1.48Zm-9.65-20.2s2.97-2.96,3.98-2.26c1.01.7-3.98,2.26-3.98,2.26Zm2.42.54s-.5.44.87.47c1.37.03-.87-.47-.87-.47Zm-22.71.13c-.11.07,3.47,1.27,5.76-1.14-.01,0-5.14.74-5.76,1.14Zm6.55,2.38s-.39,1.86-2.03,2.56c-1.64.7,2.03-2.56,2.03-2.56Zm12.1.56s5.7,5.28,5.34,6.99c-.36,1.7-5.34-6.99-5.34-6.99Zm-1.12,27.38c.1.36.18.69.22.97.24,1.31-3.05,1.67-3.05,1.67-2.78,1.18-4.19.07-4.89-1.17-.22-.4-.4-.83-.51-1.27-4.08-14.35,4.25-29.28,18.59-33.36,14.35-4.08,29.28,4.25,33.36,18.59l-.07-.26c.57-.35,1.28-.4,1.89-.12,1.57.7,3.05-.56,3.05-.56,0,0,1.28-.23,1.87.06.33.16.63-.52.83-1.15.11.34.31.96.51,1.62.12.34.21.68.3,1.01l-52.11,13.96Z" style="fill: #ff4842; isolation: isolate; opacity: .05;"/>
    <path d="m60.78,231.1c-.93-.66-1.54-1.66-1.7-2.79l-15.2-107.72-1.26-8.95c-.29-2.06.99-4.01,3-4.57l37.27-10.25c2.2-.6,3.5-2.88,2.89-5.08,0-.03-.02-.06-.02-.09l-.12-.39c-.67-2.19.57-4.5,2.76-5.17.04-.01.09-.03.13-.04l39.23-10.51c2.21-.59,4.47.72,5.06,2.92.05.18.08.36.11.54.29,2.27,2.37,3.86,4.64,3.57.15-.02.29-.05.43-.08l37.94-9.13c2.22-.54,4.45.82,4.99,3.04.05.2.08.4.1.6l10.64,115.08.2,2.17c.05.55,0,1.11-.18,1.65l-130.91,35.19h0Z" style="fill: #004b50;"/>
    <path d="m134.17,50.15l21.51,7.68-26.06,73.02-21.51-7.68,26.06-73.02Z" style="fill: #fff;"/>
    <path d="m136.26,52.72l15.17,5.46-5.46,15.17-15.17-5.46,5.46-15.17Z" style="fill: #ffc107;"/>
    <path d="m130.37,70.82l15.21,5.43-5.43,15.21-15.21-5.43,5.43-15.21Z" style="fill: #ffc107; isolation: isolate; opacity: .5;"/>
    <path d="m123.81,89.18l15.21,5.43-5.43,15.21-15.21-5.43,5.43-15.21Z" style="fill: #ffc107; isolation: isolate; opacity: .3;"/>
    <path d="m107.49,53.16l22.84.51-1.74,77.21-22.84-.51,1.74-77.21Z" style="fill: #fff;"/>
    <path d="m110.82,54.48l16.14.36-.36,16.14-16.14-.36.36-16.14Z" style="fill: #ff4842;"/>
    <path d="m110.38,73.97l16.14.36-.36,16.14-16.14-.36.36-16.14Z" style="fill: #ff4842; isolation: isolate; opacity: .5;"/>
    <path d="m109.94,93.46l16.14.36-.36,16.14-16.14-.36.36-16.14Z" style="fill: #ff4842; isolation: isolate; opacity: .3;"/>
    <path d="m92.79,58.31l22.47-4.12,13.94,75.96-22.47,4.12-13.94-75.96Z" style="fill: #fff;"/>
    <path d="m96.31,58.94l15.88-2.91,2.91,15.88-15.88,2.91-2.91-15.88Z" style="fill: #1890ff;"/>
    <path d="m99.83,78.11l15.88-2.91,2.91,15.88-15.88,2.91-2.91-15.88Z" style="fill: #1890ff; isolation: isolate; opacity: .5;"/>
    <path d="m103.35,97.28l15.88-2.91,2.91,15.88-15.88,2.91-2.91-15.88Z" style="fill: #1890ff; isolation: isolate; opacity: .3;"/>
    <path d="m83.7,63.95l21.77-6.91,23.37,73.61-21.77,6.91-23.37-73.61Z" style="fill: #fff;"/>
    <path d="m87.27,64.13l15.39-4.89,4.89,15.39-15.39,4.89-4.89-15.39Z" style="fill: #00a76f;"/>
    <path d="m93.61,81.95l15.39-4.96,4.96,15.39-15.39,4.96-4.96-15.39Z" style="fill: #00a76f; isolation: isolate; opacity: .5;"/>
    <path d="m99.06,101.29l15.39-4.89,4.89,15.39-15.39,4.89-4.89-15.39Z" style="fill: #00a76f; isolation: isolate; opacity: .3;"/>
    <path d="m119.4,159.76l-17.57,12.84-25.68,18.75c-1.62-1.73-3.95-4.04-6.8-6.77-9.8-9.43-25.71-23.91-39.83-36.6C13.61,133.66,0,121.64,0,121.64l6.48-3.9,52.86-32,60.06,74.02h0Z" style="fill: #f4f6f8;"/>
    <path d="m119.4,159.76l-17.57,12.84c-10.34,5.22-21.24,9.24-32.49,11.99-9.8-9.43-25.71-23.91-39.83-36.6l-23.03-30.25,52.86-31.99,60.06,74.02Z" style="isolation: isolate; opacity: .1;"/>
    <path d="m132.72,151.13s-25.62,26.17-72.18,34.28L.61,106.76l16.57-7.64,57.29-26.4,57.12,76.88,1.13,1.54h0Z" style="fill: #00a76f;"/>
    <path d="m131.58,149.61c-7.08,2.27-15.38,4.46-24,5.7-9.32,1.36-18.99,1.6-27.85-.33-7.41-1.61-13.96-3.76-19.98-6.84-15.67-7.97-27.84-22.13-42.57-49.02l57.29-26.4,57.11,76.88h0Z" style="fill: #ff4842; isolation: isolate; opacity: .1;"/>
    <path d="m152.6,138.68s-21.27,10.41-44.84,13.83c-9.32,1.36-18.99,1.6-27.85-.32-7.41-1.61-13.95-3.76-19.98-6.84-19.4-9.87-33.42-29.21-53.6-70.45,0,0,39.73-.99,71.34-30.61,0,.02,33.23,74.3,74.93,94.39Z" style="fill: #fff;"/>
    <path d="m29.91,85.7s29.89-9.85,36.61-18.66l2.39,3.79s-17.68,14.22-37.7,19.7l-1.29-4.83h0Zm5.46,20.39s28.95-9.48,48.28-26.15l1.21,1.51s-14.86,15-48.85,27l-.63-2.36Zm4.49,7.31s28.95-9.48,48.27-26.15l1.21,1.51s-14.86,15-48.85,27l-.63-2.36Zm4.49,7.32s28.95-9.48,48.28-26.15l1.21,1.51s-14.86,15-48.85,27l-.63-2.36h0Zm4.5,7.32s28.95-9.48,48.27-26.15l1.21,1.51s-14.86,15-48.85,27l-.63-2.36h0Zm4.49,7.33s28.95-9.48,48.28-26.15l1.21,1.52s-14.86,15-48.85,27l-.63-2.36Z" style="fill: #00a76f; isolation: isolate; opacity: .3;"/>
    <rect x="158.66" y="-18.02" width="51.03" height="91.31" rx="4.74" ry="4.74" transform="translate(146.9 210.1) rotate(-86.99)" style="fill: #fff;"/>
    <circle cx="156.28" cy="23.34" r="9.38" transform="translate(-.72 41.24) rotate(-15)" style="fill: #00a76f; isolation: isolate; opacity: .2;"/>
    <path d="m177.51,15.91l.13-2.56,40.79,2.14-.13,2.56-40.79-2.14Z" style="fill: #00a76f; isolation: isolate; opacity: .2;"/>
    <path d="m177.17,22.45l.13-2.56,20.78,1.09-.13,2.56-20.78-1.09Z" style="fill: #00a76f; isolation: isolate; opacity: .2;"/>
    <path d="m176.82,28.99l.13-2.56,33.61,1.77-.13,2.56-33.61-1.77Z" style="fill: #00a76f; isolation: isolate; opacity: .2;"/>
    <path d="m176.48,35.53l.13-2.56,40.79,2.14-.13,2.56-40.79-2.14Z" style="fill: #00a76f; isolation: isolate; opacity: .2;"/>
    <path d="m205.36,48.92l.26-4.96,11.29.59-.26,4.96-11.29-.59Z" style="fill: #00a76f; isolation: isolate; opacity: .5;"/>
    <rect x="172.28" y="87.18" width="50.3" height="78.3" rx="4" ry="4" transform="translate(16.96 275.9) rotate(-72.27)" style="fill: #fff;"/>
    <path d="m161.14,132.99l4.26-13.58,3.19,1-4.26,13.58-3.19-1Z" style="fill: #dfe3e8;"/>
    <path d="m170.49,133l9.36-29.82,2.93.92-9.36,29.82-2.93-.92Z" style="fill: #dfe3e8;"/>
    <path d="m176.75,134.96l9.36-29.82,2.93.92-9.36,29.82-2.93-.92Z" style="fill: #dfe3e8;"/>
    <path d="m183.01,136.93l9.36-29.82,2.93.92-9.36,29.82-2.93-.92Z" style="fill: #dfe3e8;"/>
    <path d="m189.86,140.37l9.51-29.73,2.92.93-9.51,29.73-2.92-.93Z" style="fill: #dfe3e8;"/>
    <path d="m195.52,140.86l9.36-29.82,2.93.92-9.36,29.82-2.93-.92Z" style="fill: #f4f6f8;"/>
    <path d="m201.78,142.82l9.36-29.82,2.93.92-9.36,29.82-2.93-.92Z" style="fill: #f4f6f8;"/>
    <path d="m220.35,122.33l2.42-7.72,7.72,2.42-2.42,7.72-7.72-2.42Z" style="fill: #dfe3e8;"/>
    <path d="m140.01,95.26l-44.08,12.32c-1.65.46-2.62,2.16-2.18,3.82l.98,3.65c.44,1.64-.51,3.33-2.14,3.81l-31.69,9.31c-1.38.41-2.86-.18-3.59-1.43l-2.97-5.11c-.72-1.23-2.17-1.82-3.55-1.44l-42.49,11.88c-1.66.46-2.63,2.19-2.17,3.85.04.16.1.31.17.46l44.18,96.3c.63,1.38,2.17,2.11,3.64,1.72l134.77-35.49c1.67-.44,2.67-2.16,2.22-3.83-.05-.19-.12-.38-.21-.56l-47.24-97.62c-.66-1.36-2.2-2.05-3.65-1.65h0Z" style="fill: #00a76f;"/>
    <path d="m140.01,95.26l-44.08,12.32c-1.65.46-2.62,2.16-2.18,3.82l.98,3.65c.44,1.64-.51,3.33-2.14,3.81l-31.69,9.31c-1.38.41-2.86-.18-3.59-1.43l-2.97-5.11c-.72-1.23-2.17-1.82-3.55-1.44l-42.49,11.88c-1.66.46-2.63,2.19-2.17,3.85.04.16.1.31.17.46l44.18,96.3c.63,1.38,2.17,2.11,3.64,1.72l134.77-35.49c1.67-.44,2.67-2.16,2.22-3.83-.05-.19-.12-.38-.21-.56l-47.24-97.62c-.66-1.36-2.2-2.05-3.65-1.65h0Z" style="fill: #007867; isolation: isolate; opacity: .24;"/>
    <path d="m140.01,95.26l-44.08,12.32c-1.65.46-2.62,2.16-2.18,3.82l.98,3.65c.44,1.64-.51,3.33-2.14,3.81l-31.69,9.31c-1.38.41-2.86-.18-3.59-1.43l-2.97-5.11c-.72-1.23-2.17-1.82-3.55-1.44l-42.49,11.88c-1.66.46-2.63,2.19-2.17,3.85.04.16.1.31.17.46l44.18,96.3c.63,1.38,2.17,2.11,3.64,1.72l134.77-35.49c1.67-.44,2.67-2.16,2.22-3.83-.05-.19-.12-.38-.21-.56l-47.24-97.62c-.66-1.36-2.2-2.05-3.65-1.65h0Z" style="fill: url(#Dégradé_sans_nom_2); isolation: isolate; opacity: .32;"/>
    <path d="m89.56,151.38c-7.7,2.06-12.27,9.98-10.21,17.69,2.06,7.7,9.98,12.27,17.69,10.21s12.27-9.98,10.21-17.69c-2.06-7.7-9.98-12.27-17.69-10.21Z" style="fill: #007867;"/>
    <path d="m90,153c6.81-1.82,13.81,2.22,15.63,9.02s-2.22,13.81-9.02,15.63c-6.81,1.82-13.8-2.22-15.63-9.02-1.82-6.81,2.22-13.8,9.02-15.63" style="fill: #00a76f; isolation: isolate; opacity: .72;"/>
  </g>
</svg>