<?xml version="1.0" encoding="UTF-8"?>
<svg id="Calque_2" data-name="Calque 2" xmlns="http://www.w3.org/2000/svg" xmlns:xlink="http://www.w3.org/1999/xlink" viewBox="0 0 927.05 1859">
  <defs>
    <linearGradient id="linear-gradient" x1="6.23" y1="376.5" x2="5.15" y2="442.51" gradientUnits="userSpaceOnUse">
      <stop offset="0" stop-color="#374cb4"/>
      <stop offset=".23" stop-color="#1f36ab"/>
      <stop offset=".41" stop-color="#3e52b7"/>
      <stop offset=".55" stop-color="#7785cc"/>
      <stop offset=".82" stop-color="#374cb4"/>
      <stop offset="1" stop-color="#374cb4"/>
    </linearGradient>
    <linearGradient id="linear-gradient-2" x1="5.93" y1="522.18" x2="5.38" y2="644.55" xlink:href="#linear-gradient"/>
    <linearGradient id="linear-gradient-3" x1="920.79" y1="561.18" x2="920.79" y2="658.77" xlink:href="#linear-gradient"/>
    <linearGradient id="linear-gradient-4" x1="8.86" y1="154.78" x2="23.53" y2="154.78" gradientUnits="userSpaceOnUse">
      <stop offset="0" stop-color="#3249a5"/>
      <stop offset="1" stop-color="#1b359b"/>
    </linearGradient>
    <linearGradient id="linear-gradient-5" x1="903.53" y1="154.78" x2="918.19" y2="154.78" gradientUnits="userSpaceOnUse">
      <stop offset="0" stop-color="#1b359b"/>
      <stop offset="1" stop-color="#3249a5"/>
    </linearGradient>
    <linearGradient id="linear-gradient-6" x1="-2661.19" y1="4328.73" x2="-2646.52" y2="4328.73" gradientTransform="translate(3407.22 -4321.4)" xlink:href="#linear-gradient-5"/>
    <linearGradient id="linear-gradient-7" x1="-2661.19" y1="3749.06" x2="-2646.52" y2="3749.06" gradientTransform="translate(2827.55 -3741.73)" xlink:href="#linear-gradient-5"/>
    <linearGradient id="linear-gradient-8" y1="144.7" y2="144.7" gradientTransform="translate(0 1848.92) scale(1 -1)" xlink:href="#linear-gradient-4"/>
    <linearGradient id="linear-gradient-9" y1="144.7" y2="144.7" gradientTransform="translate(0 1848.92) scale(1 -1)" xlink:href="#linear-gradient-5"/>
    <linearGradient id="linear-gradient-10" x1="-2651.11" y1="4328.73" x2="-2636.45" y2="4328.73" gradientTransform="translate(3397.14 6180.4) scale(1 -1)" xlink:href="#linear-gradient-5"/>
    <linearGradient id="linear-gradient-11" x1="-2651.11" y1="3749.06" x2="-2636.45" y2="3749.06" gradientTransform="translate(2817.47 5600.73) scale(1 -1)" xlink:href="#linear-gradient-5"/>
    <linearGradient id="linear-gradient-12" x1="8.86" y1="929.5" x2="918.19" y2="929.5" gradientUnits="userSpaceOnUse">
      <stop offset="0" stop-color="#2138ac"/>
      <stop offset="0" stop-color="#3449b3"/>
      <stop offset=".1" stop-color="#374cb4"/>
      <stop offset=".12" stop-color="#96a1d8"/>
      <stop offset=".15" stop-color="#374cb4"/>
      <stop offset=".24" stop-color="#283faf"/>
      <stop offset=".41" stop-color="#374cb4"/>
      <stop offset=".43" stop-color="#7785cc"/>
      <stop offset=".46" stop-color="#374cb4"/>
      <stop offset=".57" stop-color="#374cb4"/>
      <stop offset=".6" stop-color="#7c8ace"/>
      <stop offset=".63" stop-color="#374cb4"/>
      <stop offset=".69" stop-color="#374cb4"/>
      <stop offset=".79" stop-color="#1129a6"/>
      <stop offset=".9" stop-color="#374cb4"/>
      <stop offset=".93" stop-color="#a9b2df"/>
      <stop offset=".96" stop-color="#374cb4"/>
    </linearGradient>
  </defs>
  <g id="objects">
    <g>
      <g>
        <path d="m5.67,374h5.63v69.67h-5.63c-3.13,0-5.67-2.54-5.67-5.67v-58.32c0-3.13,2.54-5.67,5.67-5.67Z" style="fill: url(#linear-gradient);"/>
        <path d="m5.67,513.33h5.63v135.67h-5.63c-3.13,0-5.67-2.54-5.67-5.67v-124.32c0-3.13,2.54-5.67,5.67-5.67Z" style="fill: url(#linear-gradient-2);"/>
        <path d="m914.53,556.57h7.99c2.5,0,4.54,2.03,4.54,4.54v207.14c0,2.5-2.03,4.54-4.54,4.54h-7.99v-216.21h0Z" style="fill: url(#linear-gradient-3);"/>
        <rect x="8.86" y="153.43" width="14.67" height="2.71" style="fill: url(#linear-gradient-4);"/>
        <rect x="903.53" y="153.43" width="14.67" height="2.71" style="fill: url(#linear-gradient-5);"/>
        <rect x="746.03" y="5.98" width="14.67" height="2.71" transform="translate(746.03 760.7) rotate(-90)" style="fill: url(#linear-gradient-6);"/>
        <rect x="166.36" y="5.98" width="14.67" height="2.71" transform="translate(166.36 181.02) rotate(-90)" style="fill: url(#linear-gradient-7);"/>
        <rect x="8.86" y="1702.86" width="14.67" height="2.71" style="fill: url(#linear-gradient-8);"/>
        <rect x="903.53" y="1702.86" width="14.67" height="2.71" style="fill: url(#linear-gradient-9);"/>
        <rect x="746.03" y="1850.31" width="14.67" height="2.71" transform="translate(2605.03 1098.3) rotate(90)" style="fill: url(#linear-gradient-10);"/>
        <rect x="166.36" y="1850.31" width="14.67" height="2.71" transform="translate(2025.36 1677.98) rotate(90)" style="fill: url(#linear-gradient-11);"/>
        <path d="m786.19,0H140.86C67.96,0,8.86,59.1,8.86,132v1595c0,72.9,59.1,132,132,132h645.33c72.9,0,132-59.1,132-132V132C918.19,59.1,859.1,0,786.19,0Zm121,1729.94c0,65.2-52.86,118.06-118.06,118.06H137.92c-65.2,0-118.06-52.86-118.06-118.06V129.06c0-65.2,52.86-118.06,118.06-118.06h651.22c65.2,0,118.06,52.86,118.06,118.06v1600.88Z" style="fill: url(#linear-gradient-12);"/>
      </g>
      <rect x="340.61" y="55" width="245.84" height="72.02" rx="36.01" ry="36.01"/>
      <g>
        <circle cx="543.62" cy="90.68" r="22.57" style="fill: #111012;"/>
        <circle cx="543.62" cy="90.68" r="17.83" style="fill: #161519;"/>
        <ellipse cx="543.62" cy="90.68" rx="13.67" ry="13.68" style="fill: #010e15;"/>
        <path d="m535.93,101.95c-3.75-2.55-5.99-6.77-5.99-11.3h3c0,3.53,1.75,6.82,4.67,8.81l-1.69,2.49Z" style="fill: #2e252e;"/>
        <path d="m554.08,88.79c-.63-3.56-3-6.54-6.35-7.95l1.17-2.77c4.29,1.81,7.33,5.62,8.14,10.19l-2.96.52Z" style="fill: #2e252e;"/>
        <path d="m540.3,85.02s-5.27.74-5.27,5.9,5.27,5.37,5.27,5.37v-11.27Z" style="fill: #346568; opacity: .38;"/>
        <path d="m546.94,85.02s5.27.74,5.27,5.9c0,5.16-5.27,5.37-5.27,5.37v-11.27Z" style="fill: #346568; opacity: .38;"/>
        <path d="m554.7,98.24c-2.55,3.75-6.77,5.99-11.3,5.99v-3c3.53,0,6.82-1.75,8.81-4.67l2.49,1.69Z" style="fill: #2e252e; opacity: .6;"/>
        <path d="m541.54,80.09c-3.56.63-6.54,3-7.95,6.35l-2.77-1.17c1.81-4.29,5.62-7.33,10.19-8.14l.52,2.96Z" style="fill: #2e252e; opacity: .6;"/>
      </g>
    </g>
    <rect x="-454.4" y="489.53" width="1836.99" height="887.33" rx="118.06" ry="118.06" transform="translate(1397.29 469.1) rotate(90)" style="fill: none; stroke: #000; stroke-miterlimit: 10; stroke-width: 14px;"/>
  </g>
</svg>