<?xml version="1.0" encoding="UTF-8"?>
<svg xmlns="http://www.w3.org/2000/svg" xmlns:xlink="http://www.w3.org/1999/xlink" viewBox="0 0 1000 857.7">
  <defs>
    <linearGradient id="linear-gradient" x1="903.76" y1="424.36" x2="1000" y2="424.36" gradientUnits="userSpaceOnUse">
      <stop offset="0" stop-color="#f38273"/>
      <stop offset="1" stop-color="#ff2fcc"/>
    </linearGradient>
    <linearGradient id="linear-gradient-2" x1="903.76" y1="442.97" x2="986.16" y2="442.97" xlink:href="#linear-gradient"/>
    <linearGradient id="linear-gradient-3" x1="690.05" y1="110.92" x2="690.05" y2="402.99" gradientUnits="userSpaceOnUse">
      <stop offset="0" stop-color="#00cfff"/>
      <stop offset=".1" stop-color="#06bbe7" stop-opacity=".88"/>
      <stop offset=".44" stop-color="#1b7d9c" stop-opacity=".51"/>
      <stop offset=".71" stop-color="#2b4f65" stop-opacity=".23"/>
      <stop offset=".9" stop-color="#353243" stop-opacity=".06"/>
      <stop offset="1" stop-color="#392836" stop-opacity="0"/>
    </linearGradient>
    <linearGradient id="linear-gradient-4" x1="2276.91" y1="557.17" x2="2359.28" y2="-55.02" gradientTransform="translate(2984.77) rotate(-180) scale(1 -1)" gradientUnits="userSpaceOnUse">
      <stop offset="0" stop-color="#1ae5ff"/>
      <stop offset=".26" stop-color="#63e8f8"/>
      <stop offset=".7" stop-color="#eaeeee"/>
    </linearGradient>
    <linearGradient id="linear-gradient-5" x1="2116.79" y1="387.5" x2="2149.76" y2="387.5" gradientTransform="translate(2984.77) rotate(-180) scale(1 -1)" gradientUnits="userSpaceOnUse">
      <stop offset="0" stop-color="#5155d4"/>
      <stop offset="1" stop-color="#45f7ff"/>
    </linearGradient>
    <linearGradient id="linear-gradient-6" x1="476.09" y1="361.32" x2="809.64" y2="361.32" xlink:href="#linear-gradient"/>
    <linearGradient id="linear-gradient-7" x1="529.24" y1="65.28" x2="529.24" y2="232.28" gradientTransform="matrix(1,0,0,1,0,0)" xlink:href="#linear-gradient-5"/>
    <linearGradient id="linear-gradient-8" x1="669.02" y1="243.16" x2="669.02" y2="339.32" gradientTransform="matrix(1,0,0,1,0,0)" xlink:href="#linear-gradient-5"/>
    <linearGradient id="linear-gradient-9" x1="756.39" y1="313.54" x2="817.72" y2="313.54" xlink:href="#linear-gradient"/>
    <linearGradient id="linear-gradient-10" x1="417.79" y1="66.53" x2="190.02" y2="858.78" gradientTransform="matrix(1,0,0,1,0,0)" xlink:href="#linear-gradient-5"/>
    <linearGradient id="linear-gradient-11" x1="214.83" y1="539.24" x2="214.83" y2="428.73" gradientTransform="matrix(1,0,0,1,0,0)" xlink:href="#linear-gradient-4"/>
    <linearGradient id="linear-gradient-12" x1="83.27" y1="463" x2="219.73" y2="532.93" gradientTransform="matrix(1,0,0,1,0,0)" xlink:href="#linear-gradient-4"/>
    <linearGradient id="linear-gradient-13" x1="196.98" y1="380.13" x2="153.06" y2="532.88" gradientTransform="matrix(1,0,0,1,0,0)" xlink:href="#linear-gradient-5"/>
    <linearGradient id="linear-gradient-14" x1="204.85" y1="465.24" x2="204.85" y2="285.26" xlink:href="#linear-gradient-3"/>
    <linearGradient id="linear-gradient-15" x1="141.75" y1="483.88" x2="141.75" y2="284.94" gradientUnits="userSpaceOnUse">
      <stop offset="0" stop-color="#00cfff"/>
      <stop offset=".09" stop-color="#01caf9" stop-opacity=".97"/>
      <stop offset=".22" stop-color="#05beea" stop-opacity=".9"/>
      <stop offset=".37" stop-color="#0ca9d2" stop-opacity=".78"/>
      <stop offset=".54" stop-color="#168db0" stop-opacity=".61"/>
      <stop offset=".72" stop-color="#226984" stop-opacity=".39"/>
      <stop offset=".91" stop-color="#313e50" stop-opacity=".13"/>
      <stop offset="1" stop-color="#392836" stop-opacity="0"/>
    </linearGradient>
    <linearGradient id="linear-gradient-16" x1="345.23" y1="609.4" x2="345.23" y2="498.9" gradientTransform="matrix(1,0,0,1,0,0)" xlink:href="#linear-gradient-4"/>
    <linearGradient id="linear-gradient-17" x1="213.66" y1="533.16" x2="350.12" y2="603.09" gradientTransform="matrix(1,0,0,1,0,0)" xlink:href="#linear-gradient-4"/>
    <linearGradient id="linear-gradient-18" x1="327.38" y1="450.3" x2="283.46" y2="603.05" gradientTransform="matrix(1,0,0,1,0,0)" xlink:href="#linear-gradient-5"/>
    <linearGradient id="linear-gradient-19" x1="335.24" y1="535.4" x2="335.24" y2="355.43" xlink:href="#linear-gradient-3"/>
    <linearGradient id="linear-gradient-20" x1="272.15" y1="554.05" x2="272.15" y2="355.11" xlink:href="#linear-gradient-15"/>
    <linearGradient id="linear-gradient-21" x1="340.55" y1="471.08" x2="340.55" y2="360.57" gradientTransform="matrix(1,0,0,1,0,0)" xlink:href="#linear-gradient-4"/>
    <linearGradient id="linear-gradient-22" x1="208.98" y1="394.84" x2="345.44" y2="464.77" gradientTransform="matrix(1,0,0,1,0,0)" xlink:href="#linear-gradient-4"/>
    <linearGradient id="linear-gradient-23" x1="322.69" y1="311.97" x2="278.78" y2="464.73" gradientTransform="matrix(1,0,0,1,0,0)" xlink:href="#linear-gradient-5"/>
    <linearGradient id="linear-gradient-24" x1="330.56" y1="397.08" x2="330.56" y2="217.1" xlink:href="#linear-gradient-3"/>
    <linearGradient id="linear-gradient-25" x1="267.47" y1="415.72" x2="267.47" y2="216.78" xlink:href="#linear-gradient-15"/>
    <linearGradient id="linear-gradient-26" x1="466.26" y1="539.24" x2="466.26" y2="428.73" gradientTransform="matrix(1,0,0,1,0,0)" xlink:href="#linear-gradient-4"/>
    <linearGradient id="linear-gradient-27" x1="334.7" y1="463" x2="471.16" y2="532.93" gradientTransform="matrix(1,0,0,1,0,0)" xlink:href="#linear-gradient-4"/>
    <linearGradient id="linear-gradient-28" x1="448.41" y1="380.13" x2="404.5" y2="532.89" gradientTransform="matrix(1,0,0,1,0,0)" xlink:href="#linear-gradient-5"/>
    <linearGradient id="linear-gradient-29" x1="456.28" y1="465.24" x2="456.28" y2="285.26" xlink:href="#linear-gradient-3"/>
    <linearGradient id="linear-gradient-30" x1="393.19" x2="393.19" xlink:href="#linear-gradient-15"/>
    <linearGradient id="linear-gradient-31" x1="57.95" y1="645.04" x2="144.17" y2="551.13" gradientTransform="translate(1.8 -.34) rotate(.18)" gradientUnits="userSpaceOnUse">
      <stop offset="0" stop-color="#282a57" stop-opacity=".4"/>
      <stop offset=".41" stop-color="#7d7f9a" stop-opacity=".64"/>
      <stop offset="1" stop-color="#fff"/>
    </linearGradient>
    <linearGradient id="linear-gradient-32" x1="79.82" y1="620.17" x2="132.02" y2="563.32" gradientTransform="matrix(1,0,0,1,0,0)" xlink:href="#linear-gradient-31"/>
    <linearGradient id="linear-gradient-33" x1="92.27" y1="489.78" x2="112.19" y2="489.78" gradientUnits="userSpaceOnUse">
      <stop offset="0" stop-color="#a43f41"/>
      <stop offset="1" stop-color="#642f41"/>
    </linearGradient>
    <linearGradient id="linear-gradient-34" x1="2543.09" y1="274.87" x2="2546.52" y2="-120.87" gradientTransform="translate(2655.48) rotate(-180) scale(1 -1)" xlink:href="#linear-gradient-3"/>
    <linearGradient id="linear-gradient-35" x1="146.17" y1="38.94" x2="146.17" y2="197.31" gradientUnits="userSpaceOnUse">
      <stop offset="0" stop-color="#ffd119"/>
      <stop offset=".99" stop-color="#ff4174"/>
    </linearGradient>
    <linearGradient id="linear-gradient-36" x1="233.96" y1="363.32" x2="233.96" y2="271.37" gradientTransform="matrix(1,0,0,1,0,0)" xlink:href="#linear-gradient-4"/>
    <linearGradient id="linear-gradient-37" x1="124.49" y1="299.88" x2="238.04" y2="358.07" gradientTransform="matrix(1,0,0,1,0,0)" xlink:href="#linear-gradient-4"/>
    <linearGradient id="linear-gradient-38" x1="219.11" y1="230.93" x2="182.57" y2="358.03" gradientTransform="matrix(1,0,0,1,0,0)" xlink:href="#linear-gradient-5"/>
    <linearGradient id="linear-gradient-39" x1="233.96" y1="338.65" x2="233.96" y2="246.7" gradientTransform="matrix(1,0,0,1,0,0)" xlink:href="#linear-gradient-4"/>
    <linearGradient id="linear-gradient-40" x1="124.49" y1="275.21" x2="238.04" y2="333.4" gradientTransform="matrix(1,0,0,1,0,0)" xlink:href="#linear-gradient-4"/>
    <linearGradient id="linear-gradient-41" x1="219.11" y1="206.26" x2="182.57" y2="333.37" xlink:href="#linear-gradient-35"/>
    <linearGradient id="linear-gradient-42" x1="2115.63" y1="143.28" x2="2115.63" y2="268.98" gradientTransform="translate(2185.58) rotate(-180) scale(1 -1)" xlink:href="#linear-gradient-35"/>
    <linearGradient id="linear-gradient-43" x1="203.5" y1="200" x2="225.58" y2="180.76" gradientTransform="matrix(1,0,0,1,0,0)" xlink:href="#linear-gradient-4"/>
    <linearGradient id="linear-gradient-44" x1="206.13" y1="250.66" x2="201.15" y2="146.84" gradientTransform="matrix(1,0,0,1,0,0)" xlink:href="#linear-gradient-4"/>
    <linearGradient id="linear-gradient-45" x1="190.47" y1="248.79" x2="185.5" y2="144.97" gradientTransform="matrix(1,0,0,1,0,0)" xlink:href="#linear-gradient-4"/>
    <linearGradient id="linear-gradient-46" x1="179.01" y1="211.31" x2="176.42" y2="191.62" gradientTransform="matrix(1,0,0,1,0,0)" xlink:href="#linear-gradient-4"/>
    <linearGradient id="linear-gradient-47" x1="367.64" y1="729.48" x2="367.64" y2="681.57" gradientTransform="matrix(1,0,0,1,0,0)" xlink:href="#linear-gradient-4"/>
    <linearGradient id="linear-gradient-48" x1="310.6" y1="696.43" x2="369.76" y2="726.74" gradientTransform="matrix(1,0,0,1,0,0)" xlink:href="#linear-gradient-4"/>
    <linearGradient id="linear-gradient-49" x1="359.9" y1="660.5" x2="340.86" y2="726.73" gradientTransform="matrix(1,0,0,1,0,0)" xlink:href="#linear-gradient-5"/>
    <linearGradient id="linear-gradient-50" x1="419.03" y1="762.03" x2="419.03" y2="714.12" gradientTransform="matrix(1,0,0,1,0,0)" xlink:href="#linear-gradient-4"/>
    <linearGradient id="linear-gradient-51" x1="361.99" y1="728.98" x2="421.16" y2="759.29" gradientTransform="matrix(1,0,0,1,0,0)" xlink:href="#linear-gradient-4"/>
    <linearGradient id="linear-gradient-52" x1="411.29" y1="693.05" x2="392.25" y2="759.27" gradientTransform="matrix(1,0,0,1,0,0)" xlink:href="#linear-gradient-5"/>
    <linearGradient id="linear-gradient-53" x1="192.9" y1="580.98" x2="136.42" y2="777.41" gradientTransform="matrix(1,0,0,1,0,0)" xlink:href="#linear-gradient-5"/>
    <linearGradient id="linear-gradient-54" x1="501.26" y1="701.76" x2="444.79" y2="898.18" gradientTransform="matrix(1,0,0,1,0,0)" xlink:href="#linear-gradient-5"/>
    <linearGradient id="linear-gradient-55" x1="958.71" y1="610.06" x2="927.09" y2="720.06" gradientTransform="matrix(1,0,0,1,0,0)" xlink:href="#linear-gradient-5"/>
    <linearGradient id="linear-gradient-56" x1="738.54" y1="800.64" x2="738.54" y2="941.63" xlink:href="#linear-gradient"/>
    <linearGradient id="linear-gradient-57" x1="686.38" y1="822.36" x2="790.78" y2="822.36" xlink:href="#linear-gradient-35"/>
    <linearGradient id="linear-gradient-58" x1="738.64" y1="643.39" x2="738.64" y2="762.86" gradientUnits="userSpaceOnUse">
      <stop offset="0" stop-color="#282a57" stop-opacity="0"/>
      <stop offset=".03" stop-color="#353761" stop-opacity=".06"/>
      <stop offset=".14" stop-color="#646585" stop-opacity=".28"/>
      <stop offset=".26" stop-color="#8d8ea6" stop-opacity=".47"/>
      <stop offset=".37" stop-color="#b0b1c1" stop-opacity=".63"/>
      <stop offset=".49" stop-color="#cccdd7" stop-opacity=".77"/>
      <stop offset=".61" stop-color="#e2e3e9" stop-opacity=".87"/>
      <stop offset=".73" stop-color="#f2f2f5" stop-opacity=".94"/>
      <stop offset=".86" stop-color="#fbfbfc" stop-opacity=".99"/>
      <stop offset="1" stop-color="#fff"/>
    </linearGradient>
    <linearGradient id="linear-gradient-59" x1="840.47" y1="747.53" x2="840.47" y2="888.52" gradientUnits="userSpaceOnUse">
      <stop offset="0" stop-color="#05ccff"/>
      <stop offset=".2" stop-color="#04c6ff"/>
      <stop offset=".44" stop-color="#04b8ff"/>
      <stop offset=".71" stop-color="#049fff"/>
      <stop offset=".99" stop-color="#047dff"/>
      <stop offset="1" stop-color="#047cff"/>
    </linearGradient>
    <linearGradient id="linear-gradient-60" x1="841.42" y1="590.71" x2="841.42" y2="710.18" xlink:href="#linear-gradient-58"/>
    <linearGradient id="linear-gradient-61" x1="740.22" y1="249.15" x2="512.45" y2="1041.4" gradientTransform="matrix(1,0,0,1,0,0)" xlink:href="#linear-gradient-5"/>
    <linearGradient id="linear-gradient-62" x1="611.75" y1="401.69" x2="611.75" y2="537.2" xlink:href="#linear-gradient-35"/>
    <clipPath id="clippath">
      <path d="m694.31,622.88l-.2,31.65c.03-10.74-7.06,18.43-21.25,10.23l.2-69.81c14.19,8.19,21.28,17.19,21.25,27.93Z" style="fill: #1e079d;"/>
    </clipPath>
    <linearGradient id="linear-gradient-63" x1="683.58" y1="531.46" x2="683.58" y2="609.84" xlink:href="#linear-gradient-59"/>
    <linearGradient id="linear-gradient-64" x1="738.77" y1="521.18" x2="738.77" y2="653.53" xlink:href="#linear-gradient-59"/>
    <linearGradient id="linear-gradient-65" x1="673.06" y1="624.46" x2="758.66" y2="624.46" xlink:href="#linear-gradient-59"/>
    <clipPath id="clippath-1">
      <path d="m719.06,662.82l-.2,47.35c-26.54,15.42-61.39,23.15-96.29,23.14l.2-47.35c34.9,0,69.75-7.72,96.29-23.14Z" style="fill: none;"/>
    </clipPath>
    <linearGradient id="linear-gradient-66" x1="670.82" y1="626.11" x2="670.82" y2="763.33" gradientUnits="userSpaceOnUse">
      <stop offset="0" stop-color="#009ee0"/>
      <stop offset="1" stop-color="#bdf7a3"/>
    </linearGradient>
    <linearGradient id="linear-gradient-67" x1="670.81" y1="557.59" x2="670.81" y2="690.6" xlink:href="#linear-gradient-66"/>
    <clipPath id="clippath-2">
      <path d="m485.75,653.94l.2-71.56c-.06,20.35,13.37,40.72,40.26,56.25,26.71,15.42,61.65,23.13,96.56,23.13l-.2,71.56c-34.91,0-69.85-7.71-96.56-23.13-26.89-15.52-40.31-35.9-40.26-56.25Z" style="fill: none;"/>
    </clipPath>
    <linearGradient id="linear-gradient-68" x1="554.26" y1="583.28" x2="554.26" y2="691.55" gradientUnits="userSpaceOnUse">
      <stop offset="0" stop-color="#ff5a19"/>
      <stop offset=".99" stop-color="#e02d66"/>
    </linearGradient>
    <linearGradient id="linear-gradient-69" x1="602.34" y1="458.22" x2="602.34" y2="670.76" xlink:href="#linear-gradient-35"/>
    <linearGradient id="linear-gradient-70" x1="626.48" y1="302.59" x2="626.48" y2="522.29" xlink:href="#linear-gradient-58"/>
  </defs>
  <g style="fill: none; isolation: isolate;">
    <g id="Calque_2" data-name="Calque 2">
      <g id="OBJECTS">
        <g>
          <g>
            <g>
              <g>
                <path d="m932.13,282.58v4.54c0,2.67-2.89,4.35-5.21,3.01l-21.43-12.35c-1.08-.62-1.74-1.77-1.74-3.01v-4.53c0-2.67,2.89-4.35,5.21-3.01l21.43,12.35c1.08.62,1.74,1.77,1.74,3.01Z" style="fill: #1ce5ff;"/>
                <path d="m1000,343.99v4.55c0,2.67-2.88,4.34-5.2,3.01l-89.29-51.19c-1.08-.62-1.75-1.77-1.75-3.01v-4.55c0-2.67,2.88-4.34,5.2-3.02l89.29,51.19c1.08.62,1.75,1.77,1.75,3.01Z" style="fill: #1ce5ff;"/>
                <g style="fill: none; opacity: .53;">
                  <path d="m963.2,368.05v4.55c0,2.67-2.88,4.34-5.2,3.01l-52.48-30.08c-1.08-.62-1.75-1.77-1.75-3.01v-4.55c0-2.67,2.88-4.34,5.2-3.01l52.48,30.08c1.08.62,1.75,1.77,1.75,3.01Z" style="fill: #1ce5ff;"/>
                </g>
                <path d="m986.16,358.64v4.55c0,2.67-2.89,4.34-5.2,3.01l-75.45-43.25c-1.08-.62-1.75-1.77-1.75-3.01v-4.55c0-2.67,2.88-4.34,5.2-3.01l75.45,43.25c1.08.62,1.75,1.77,1.75,3.01Z" style="fill: #1ce5ff; opacity: .3;"/>
              </g>
              <g>
                <path d="m932.13,386.27v4.54c0,2.67-2.89,4.34-5.21,3.01l-21.43-12.35c-1.08-.62-1.74-1.77-1.74-3.01v-4.53c0-2.67,2.89-4.35,5.21-3.01l21.43,12.35c1.08.62,1.74,1.77,1.74,3.01Z" style="fill: #1ce5ff;"/>
                <path d="m1000,447.68v4.55c0,2.67-2.88,4.34-5.2,3.01l-89.29-51.19c-1.08-.62-1.75-1.77-1.75-3.01v-4.55c0-2.67,2.88-4.34,5.2-3.02l89.29,51.19c1.08.62,1.75,1.77,1.75,3.01Z" style="fill: url(#linear-gradient);"/>
                <g style="fill: none; opacity: .53;">
                  <path d="m963.2,471.73v4.55c0,2.67-2.88,4.34-5.2,3.01l-52.48-30.08c-1.08-.62-1.75-1.77-1.75-3.01v-4.55c0-2.67,2.88-4.34,5.2-3.01l52.48,30.08c1.08.62,1.75,1.77,1.75,3.01Z" style="fill: #1ce5ff;"/>
                </g>
                <path d="m986.16,462.32v4.55c0,2.67-2.89,4.34-5.2,3.01l-75.45-43.25c-1.08-.62-1.75-1.77-1.75-3.01v-4.55c0-2.67,2.88-4.34,5.2-3.01l75.45,43.25c1.08.62,1.75,1.77,1.75,3.01Z" style="fill: url(#linear-gradient-2);"/>
              </g>
            </g>
            <path d="m874.43,215.14c10.98,6.34,19.84,21.68,19.8,34.3l-.71,251.38c-.04,12.61-8.95,17.7-19.93,11.36l-367.91-212.42c-10.98-6.34-19.84-21.68-19.8-34.3l.71-251.38c.04-12.61,8.95-17.7,19.93-11.36l367.91,212.42Z" style="fill: url(#linear-gradient-3);"/>
            <g>
              <path d="m480.27,22.04c-.21-.12-.42-.24-.63-.35-.27-.15-.54-.29-.81-.42-.27-.13-.54-.26-.81-.38-.27-.12-.53-.23-.8-.34-.27-.11-.54-.21-.8-.3-.05-.02-.1-.03-.15-.05-.02,0-.04-.01-.06-.02-.19-.07-.39-.13-.58-.19-.28-.08-.55-.16-.82-.23-.27-.07-.55-.13-.81-.18-.29-.06-.58-.11-.87-.14-.2-.03-.39-.04-.58-.06-.03,0-.06,0-.09,0-.07,0-.14-.02-.21-.02-.31-.02-.63-.03-.93-.03-.35,0-.69.02-1.03.05-.39.04-.77.09-1.14.17,0,0-.02,0-.03,0-.01,0-.02,0-.04,0-.46.09-.9.21-1.32.36-.56.2-1.1.45-1.61.74l-13.17,7.65c.89-.52,1.88-.89,2.93-1.11.01,0,.03,0,.04-.01,1.05-.21,2.17-.27,3.34-.17.03,0,.06,0,.09,0,1.17.11,2.4.37,3.67.8.02,0,.04.01.06.02,1.29.44,2.63,1.05,4.01,1.85l367.91,212.42,13.17-7.65L480.27,22.04Z" style="fill: url(#linear-gradient-4);"/>
              <path d="m867.98,267.86c0-.32-.02-.64-.05-.96-.02-.32-.05-.64-.08-.97-.03-.32-.07-.65-.11-.97-.04-.33-.09-.66-.14-1,0,0,0-.02,0-.03,0,0,0-.01,0-.02-.05-.32-.11-.64-.17-.96-.06-.34-.13-.69-.21-1.04-.08-.35-.16-.69-.24-1.04-.09-.35-.18-.7-.28-1.05-.08-.27-.16-.54-.24-.82,0-.02-.01-.04-.02-.06-.02-.06-.03-.11-.05-.17-.11-.34-.22-.69-.33-1.03-.11-.34-.23-.68-.35-1.01-.12-.32-.24-.65-.36-.97-.13-.32-.25-.64-.39-.96-.1-.25-.21-.49-.32-.74,0-.02-.01-.03-.02-.05-.02-.06-.05-.11-.07-.17-.14-.32-.29-.64-.44-.96-.16-.35-.33-.7-.51-1.04-.2-.4-.4-.79-.61-1.19-.23-.42-.47-.84-.71-1.26-.04-.07-.08-.15-.12-.22-.05-.09-.1-.18-.15-.26-.47-.8-.96-1.58-1.47-2.35-.41-.61-.83-1.21-1.26-1.79-.29-.39-.58-.78-.88-1.16-.25-.32-.51-.64-.77-.95-.25-.3-.51-.6-.77-.9-.25-.29-.51-.58-.77-.86-.05-.06-.11-.11-.16-.16-.02-.02-.04-.04-.06-.06-.2-.21-.4-.42-.6-.63-.28-.28-.56-.56-.84-.83-.29-.28-.58-.55-.87-.81-.29-.26-.59-.52-.88-.77-.15-.13-.3-.24-.45-.37-.03-.03-.07-.06-.1-.08-.11-.09-.22-.18-.33-.27-.29-.23-.58-.45-.87-.67-.29-.21-.58-.42-.86-.62-.28-.19-.56-.38-.84-.56-.28-.18-.56-.35-.84-.52-.07-.04-.13-.08-.2-.11l-13.17,7.65c1.36.78,2.68,1.71,3.96,2.74.03.03.07.05.1.08,1.26,1.03,2.48,2.17,3.64,3.41.02.02.04.04.06.06,2.34,2.5,4.45,5.37,6.22,8.42.04.07.08.15.12.22.86,1.5,1.65,3.04,2.33,4.62,0,.02.02.04.02.06.7,1.61,1.3,3.24,1.8,4.87,0,.02.01.04.02.07.49,1.64.88,3.28,1.13,4.91,0,0,0,.01,0,.02.26,1.64.39,3.25.39,4.83l-.71,251.38c0,1.54-.15,2.97-.4,4.28,0,.04-.02.08-.03.12-.26,1.29-.64,2.45-1.12,3.5,0,.02-.02.05-.03.07-.41.88-.94,1.61-1.49,2.31-.18.23-.36.47-.55.68-.66.7-1.37,1.32-2.17,1.79l13.17-7.65c.8-.47,1.51-1.09,2.17-1.79.2-.21.37-.45.55-.68.24-.3.5-.56.72-.89.27-.43.52-.88.75-1.36,0-.02.02-.04.03-.06,0-.02.02-.04.03-.06.15-.32.29-.66.42-1,.13-.34.24-.69.35-1.05.1-.33.18-.67.26-1.02.03-.14.06-.29.09-.44,0-.04.02-.08.02-.12.03-.14.06-.27.08-.41.05-.31.1-.63.14-.95.04-.31.07-.63.1-.96.03-.31.04-.62.06-.94.01-.32.02-.64.02-.96,0-.02,0-.04,0-.06l.71-251.38c0-.3,0-.6-.01-.9Z" style="fill: url(#linear-gradient-5);"/>
              <path d="m835.01,242.11c10.98,6.34,19.84,21.68,19.8,34.3l-.71,251.38c-.04,12.61-8.95,17.7-19.93,11.36l-367.91-212.42c-10.98-6.34-19.84-21.68-19.8-34.3l.71-251.38c.04-12.61,8.95-17.7,19.93-11.36l367.91,212.42Z" style="fill: #1ce5ff;"/>
            </g>
            <path d="m591.96,250.73c-2.29-1.32-4.64-2.12-7.09-2.32-26.83-2.11-23.39,46.14-50.2,38.87-2.14-1.03-42.88-20.65-58.58-5.57l333.55,192.58c-.7-1.42-14.06-28.44-37.16-41.78-1.54-.89-3.12-1.71-4.74-2.45-.59-.27-1.17-.57-1.74-.9-11.71-6.76-17.81-24.97-23.38-42.91-5.56-17.95-10.6-35.58-20.17-41.11-.61-.35-1.23-.65-1.88-.9-19.23-7.42-25.65,35.51-50.57,21.13-2.88-1.66-6-4.09-9.42-7.44-29.98-29.47-45.85-94.05-68.63-107.2Z" style="fill: url(#linear-gradient-6);"/>
            <g>
              <path d="m581.18,174.92c-2.29-1.32-4.16-.26-4.17,2.38l-.09,32.45,17.45,10.07.09-32.45c0-2.63-1.85-5.85-4.14-7.17l-9.14-5.28Z" style="fill: #fff;"/>
              <path d="m552.99,138.09c-2.29-1.32-4.16-.27-4.17,2.37l-.15,52.98,17.45,10.07.15-52.98c0-2.65-1.85-5.85-4.14-7.17l-9.14-5.28Z" style="fill: #fff;"/>
              <path d="m524.78,111.28c-2.3-1.33-4.16-.26-4.17,2.38l-.18,63.48,17.43,10.07.18-63.48c0-2.63-1.84-5.84-4.14-7.17l-9.13-5.27Z" style="fill: url(#linear-gradient-7);"/>
              <path d="m496.55,84.93c-2.29-1.32-4.16-.26-4.17,2.37l-.21,73.51,17.45,10.07.21-73.51c0-2.63-1.85-5.85-4.14-7.17l-9.14-5.28Z" style="fill: #fff;"/>
            </g>
            <g>
              <path d="m668.02,269.52c-1.38-1.17-2.75-2.46-4.1-3.85,1.36,1.4,2.73,2.68,4.1,3.85Z" style="fill: #757777;"/>
              <g style="fill: none; isolation: isolate;">
                <path d="m661.21,262.7l-4.68,10.86c.89,1.01,1.8,2,2.73,2.95,2.73,2.81,5.5,5.3,8.28,7.47,2.45,1.91,4.9,3.56,7.33,4.97,2.23,1.29,4.45,2.36,6.63,3.23l-1.98-15.48c-1.52-.62-3.05-1.37-4.6-2.26-2.29-1.32-4.6-2.95-6.89-4.91-1.38-1.17-2.75-2.46-4.1-3.85-.93-.95-1.84-1.95-2.71-2.97Z" style="fill: url(#linear-gradient-8);"/>
                <g style="fill: none; mix-blend-mode: overlay; opacity: .57;">
                  <path d="m635.27,198.79c-8.35,19.42,1.16,52.16,21.27,74.77l4.68-10.86c-13.64-15.91-19.98-38.38-14.2-51.81,4.71-10.95,16.11-12.72,28.15-5.76,2.92,1.69,5.88,3.88,8.78,6.59.75.7,1.49,1.42,2.25,2.19,15.48,15.96,23.06,40.49,16.9,54.78-4.11,9.56-13.3,12.13-23.58,8.01l1.98,15.48c-2.18-.87-4.4-1.94-6.63-3.23-2.43-1.41-4.88-3.06-7.33-4.97,2.46,1.92,4.92,3.58,7.37,5,17.08,9.86,33.25,7.35,39.93-8.19,8.72-20.29-2.02-55.09-23.99-77.73-.73-.75-1.47-1.47-2.2-2.17-.18-.18-.36-.34-.55-.52-4.31-4.06-8.64-7.3-12.91-9.76-17.07-9.86-33.24-7.35-39.93,8.19Z" style="fill: #fff;"/>
                </g>
              </g>
              <g>
                <g style="fill: none; mix-blend-mode: overlay; opacity: .57;">
                  <path d="m775.04,256.28c-17.08-9.86-33.24-7.34-39.92,8.19-8.36,19.43,1.15,52.15,21.27,74.78l4.67-10.87c-13.63-15.9-19.98-38.38-14.19-51.81,4.71-10.95,16.1-12.72,28.14-5.77,2.93,1.69,5.91,3.91,8.83,6.63l4.67-10.87c-4.44-4.27-8.98-7.71-13.46-10.29Z" style="fill: #fff;"/>
                </g>
                <path d="m788.5,266.57l-4.66,10.86c.73.69,1.47,1.4,2.2,2.16,15.49,15.96,23.06,40.48,16.91,54.79-.23.51-.46,1-.72,1.49-.09.17-.19.34-.29.51-4.48,7.89-13.06,9.82-22.58,6-1.49-.59-3-1.33-4.52-2.21-.41-.23-.81-.48-1.22-.73-.74-.46-1.31-.85-1.87-1.23l-.25-.18c-1.22-.86-2.44-1.8-3.66-2.84-.15-.13-.3-.26-.46-.4-.45-.39-.9-.8-1.35-1.22-.17-.15-.33-.3-.5-.47-.59-.55-1.17-1.13-1.75-1.72-.94-.97-1.84-1.96-2.72-2.98l-4.67,10.87c.89,1,1.79,1.99,2.72,2.94.83.85,1.66,1.67,2.5,2.46.23.22.47.45.71.67.63.59,1.28,1.17,1.93,1.73.22.19.43.38.65.56,1.73,1.47,3.47,2.83,5.2,4.04.14.1.27.19.41.28.79.56,1.58,1.07,2.37,1.57l.28.17c.54.33,1.08.66,1.62.97,1.28.74,2.56,1.41,3.83,2.01.96.45,1.86.84,2.76,1.2,14.52,5.76,27.52,2.12,33.33-11.41,8.72-20.28-2.02-55.09-23.98-77.73-.73-.75-1.47-1.47-2.2-2.17Z" style="fill: url(#linear-gradient-9);"/>
              </g>
            </g>
          </g>
          <g style="fill: none; opacity: .38;">
            <path d="m552.69,486.64l-235.38,136.79c-9.9,5.75-22.12,5.77-32.03.05L48.24,486.62c-9.2-5.31-9.22-18.58-.03-23.92l236.8-137.61c9.02-5.24,20.15-5.26,29.18-.04l238.47,137.68c9.2,5.31,9.22,18.58.03,23.92Z" style="fill: url(#linear-gradient-10);"/>
          </g>
          <g>
            <g>
              <g>
                <g>
                  <g style="fill: none; isolation: isolate;">
                    <path d="m255.07,458.78l-80.46,46.76-.03,13.89,78.72-45.74c1.09-.64,1.77-1.81,1.77-3.07v-11.83Z" style="fill: url(#linear-gradient-11);"/>
                    <path d="m93.83,458.78v11.97c0,1.27.68,2.44,1.78,3.08l78.98,45.6.03-14-80.78-46.64Z" style="fill: url(#linear-gradient-12);"/>
                    <path d="m253.81,460.67l-75.74,44.01c-2.13,1.24-4.77,1.24-6.91,0l-76.25-44.02c-1.41-.82-1.42-2.85,0-3.67l75.23-43.72c2.45-1.42,5.48-1.43,7.93-.01l75.74,43.73c1.41.82,1.42,2.85,0,3.67Z" style="fill: #f2f8fd;"/>
                    <path d="m222.99,461.13l-45.38,26.37c-1.91,1.11-4.26,1.11-6.18,0l-45.7-26.39c-1.77-1.02-1.78-3.58,0-4.61l45.66-26.53c1.74-1.01,3.89-1.01,5.63,0l45.98,26.55c1.77,1.02,1.78,3.58,0,4.61Z" style="fill: url(#linear-gradient-13);"/>
                  </g>
                  <g style="fill: none; mix-blend-mode: hard-light;">
                    <g>
                      <g style="fill: none; mix-blend-mode: screen;">
                        <path d="m236.34,257.38l-62.98,36.6-.02,202.45,61.61-35.81c.86-.5,1.38-1.41,1.38-2.4v-200.84Z" style="fill: url(#linear-gradient-14);"/>
                      </g>
                      <path d="m110.14,257.38v200.95c0,.99.53,1.91,1.39,2.41l61.82,35.69.02-202.54-63.23-36.51Z" style="fill: url(#linear-gradient-15);"/>
                    </g>
                  </g>
                </g>
                <g>
                  <g style="fill: none; isolation: isolate;">
                    <path d="m385.47,528.95l-80.46,46.76-.03,13.89,78.72-45.74c1.09-.64,1.77-1.81,1.77-3.07v-11.83Z" style="fill: url(#linear-gradient-16);"/>
                    <path d="m224.23,528.95v11.97c0,1.27.68,2.44,1.78,3.08l78.98,45.6.03-14-80.78-46.64Z" style="fill: url(#linear-gradient-17);"/>
                    <path d="m384.2,530.84l-75.74,44.01c-2.13,1.24-4.77,1.24-6.91,0l-76.25-44.02c-1.41-.82-1.42-2.85,0-3.67l75.23-43.72c2.45-1.42,5.48-1.43,7.93-.01l75.74,43.73c1.41.82,1.42,2.85,0,3.67Z" style="fill: #f2f8fd;"/>
                    <path d="m353.39,531.3l-45.38,26.37c-1.91,1.11-4.26,1.11-6.18,0l-45.7-26.39c-1.77-1.02-1.78-3.58,0-4.61l45.66-26.53c1.74-1.01,3.89-1.01,5.63,0l45.98,26.55c1.77,1.02,1.78,3.58,0,4.61Z" style="fill: url(#linear-gradient-18);"/>
                  </g>
                  <g style="fill: none; mix-blend-mode: hard-light;">
                    <g>
                      <g style="fill: none; mix-blend-mode: screen;">
                        <path d="m366.74,327.55l-62.98,36.6-.02,202.45,61.61-35.81c.86-.5,1.38-1.41,1.38-2.4v-200.84Z" style="fill: url(#linear-gradient-19);"/>
                      </g>
                      <path d="m240.54,327.55v200.95c0,.99.53,1.91,1.39,2.41l61.82,35.69.02-202.54-63.23-36.51Z" style="fill: url(#linear-gradient-20);"/>
                    </g>
                  </g>
                </g>
              </g>
              <g>
                <g>
                  <g style="fill: none; isolation: isolate;">
                    <path d="m380.79,390.62l-80.46,46.76-.03,13.89,78.72-45.74c1.09-.64,1.77-1.81,1.77-3.07v-11.83Z" style="fill: url(#linear-gradient-21);"/>
                    <path d="m219.55,390.62v11.97c0,1.27.68,2.44,1.78,3.08l78.98,45.6.03-14-80.78-46.64Z" style="fill: url(#linear-gradient-22);"/>
                    <path d="m379.52,392.51l-75.74,44.01c-2.13,1.24-4.77,1.24-6.91,0l-76.25-44.02c-1.41-.82-1.42-2.85,0-3.67l75.23-43.72c2.45-1.42,5.48-1.43,7.93-.01l75.74,43.73c1.41.82,1.42,2.85,0,3.67Z" style="fill: #f2f8fd;"/>
                    <path d="m348.71,392.97l-45.38,26.37c-1.91,1.11-4.26,1.11-6.18,0l-45.7-26.39c-1.77-1.02-1.78-3.58,0-4.61l45.66-26.53c1.74-1.01,3.89-1.01,5.63,0l45.98,26.55c1.77,1.02,1.78,3.58,0,4.61Z" style="fill: url(#linear-gradient-23);"/>
                  </g>
                  <g style="fill: none; mix-blend-mode: hard-light;">
                    <g>
                      <g style="fill: none; mix-blend-mode: screen;">
                        <path d="m362.06,189.22l-62.98,36.6-.02,202.45,61.61-35.81c.86-.5,1.38-1.41,1.38-2.4v-200.84Z" style="fill: url(#linear-gradient-24);"/>
                      </g>
                      <path d="m235.85,189.22v200.95c0,.99.53,1.91,1.39,2.41l61.82,35.69.02-202.54-63.23-36.51Z" style="fill: url(#linear-gradient-25);"/>
                    </g>
                  </g>
                </g>
                <g>
                  <g style="fill: none; isolation: isolate;">
                    <path d="m506.51,458.78l-80.46,46.76-.03,13.89,78.72-45.74c1.09-.64,1.77-1.81,1.77-3.07v-11.83Z" style="fill: url(#linear-gradient-26);"/>
                    <path d="m345.27,458.78v11.97c0,1.27.68,2.44,1.78,3.08l78.98,45.6.03-14-80.78-46.64Z" style="fill: url(#linear-gradient-27);"/>
                    <path d="m505.24,460.67l-75.74,44.01c-2.13,1.24-4.77,1.24-6.91,0l-76.25-44.02c-1.41-.82-1.42-2.85,0-3.67l75.23-43.72c2.45-1.42,5.48-1.43,7.93-.01l75.74,43.73c1.41.82,1.42,2.85,0,3.67Z" style="fill: #f2f8fd;"/>
                    <path d="m474.42,461.13l-45.38,26.37c-1.91,1.11-4.26,1.11-6.18,0l-45.7-26.39c-1.77-1.02-1.78-3.58,0-4.61l45.66-26.53c1.74-1.01,3.88-1.01,5.63,0l45.98,26.55c1.77,1.02,1.78,3.58,0,4.61Z" style="fill: url(#linear-gradient-28);"/>
                  </g>
                  <g style="fill: none; mix-blend-mode: hard-light;">
                    <g>
                      <g style="fill: none; mix-blend-mode: screen;">
                        <path d="m487.78,257.38l-62.98,36.6-.02,202.45,61.61-35.81c.86-.5,1.38-1.41,1.38-2.4v-200.84Z" style="fill: url(#linear-gradient-29);"/>
                      </g>
                      <path d="m361.57,257.38v200.95c0,.99.53,1.91,1.39,2.41l61.82,35.69.02-202.54-63.23-36.51Z" style="fill: url(#linear-gradient-30);"/>
                    </g>
                  </g>
                </g>
              </g>
            </g>
            <g>
              <g style="fill: none; mix-blend-mode: overlay;">
                <g style="fill: none; opacity: .62;">
                  <path d="m147.64,401.79c.56.32,1,1.1,1,1.74l-.05,17.48c0,.64-.45.9-1.01.58l-22.13-12.78c-.56-.32-1.01-1.1-1-1.74l.05-17.48c0-.64.45-.9,1.01-.58l22.13,12.78Z" style="fill: #fafafa;"/>
                </g>
                <g style="fill: none; opacity: .27;">
                  <path d="m164.14,438.45c.56.32,1,1.1,1,1.74l-.05,17.48c0,.64-.45.9-1.01.58l-22.13-12.78c-.56-.32-1.01-1.1-1-1.74l.05-17.48c0-.64.45-.9,1.01-.58l22.13,12.78Z" style="fill: #fafafa;"/>
                </g>
                <g style="fill: none; opacity: .27;">
                  <path d="m160.51,387.73c.25.15.46.5.46.79l-.02,7.94c0,.29-.21.41-.46.26l-10.05-5.8c-.25-.15-.46-.5-.46-.79l.02-7.94c0-.29.21-.41.46-.26l10.05,5.8Z" style="fill: #fafafa;"/>
                </g>
              </g>
              <g style="fill: none; mix-blend-mode: overlay;">
                <g style="fill: none; opacity: .62;">
                  <path d="m263.97,298.71c.56.32,1,1.1,1,1.74l-.05,17.48c0,.64-.45.9-1.01.58l-22.13-12.78c-.56-.32-1.01-1.1-1-1.74l.05-17.48c0-.64.45-.9,1.01-.58l22.13,12.78Z" style="fill: #fafafa;"/>
                </g>
                <g style="fill: none; opacity: .27;">
                  <path d="m280.47,335.37c.56.32,1,1.1,1,1.74l-.05,17.48c0,.64-.45.9-1.01.58l-22.13-12.78c-.56-.32-1.01-1.1-1-1.74l.05-17.48c0-.64.45-.9,1.01-.58l22.13,12.78Z" style="fill: #fafafa;"/>
                </g>
                <g style="fill: none; opacity: .27;">
                  <path d="m276.84,284.65c.25.15.46.5.46.79l-.02,7.94c0,.29-.21.41-.46.26l-10.05-5.8c-.25-.15-.46-.5-.46-.79l.02-7.94c0-.29.21-.41.46-.26l10.05,5.8Z" style="fill: #fafafa;"/>
                </g>
              </g>
              <g style="fill: none; mix-blend-mode: overlay;">
                <g style="fill: none; opacity: .62;">
                  <path d="m269.99,459.3c.56.32,1,1.1,1,1.74l-.05,17.48c0,.64-.45.9-1.01.58l-22.13-12.78c-.56-.32-1.01-1.1-1-1.74l.05-17.48c0-.64.45-.9,1.01-.58l22.13,12.78Z" style="fill: #fafafa;"/>
                </g>
                <g style="fill: none; opacity: .27;">
                  <path d="m286.49,495.96c.56.32,1,1.1,1,1.74l-.05,17.48c0,.64-.45.9-1.01.58l-22.13-12.78c-.56-.32-1.01-1.1-1-1.74l.05-17.48c0-.64.45-.9,1.01-.58l22.13,12.78Z" style="fill: #fafafa;"/>
                </g>
                <g style="fill: none; opacity: .27;">
                  <path d="m282.86,445.24c.25.15.46.5.46.79l-.02,7.94c0,.29-.21.41-.46.26l-10.05-5.8c-.25-.15-.46-.5-.46-.79l.02-7.94c0-.29.21-.41.46-.26l10.05,5.8Z" style="fill: #fafafa;"/>
                </g>
              </g>
              <g style="fill: none; mix-blend-mode: overlay;">
                <g style="fill: none; opacity: .62;">
                  <path d="m394.84,399.13c.56.32,1,1.1,1,1.74l-.05,17.48c0,.64-.45.9-1.01.58l-22.13-12.78c-.56-.32-1.01-1.1-1-1.74l.05-17.48c0-.64.45-.9,1.01-.58l22.13,12.78Z" style="fill: #fafafa;"/>
                </g>
                <g style="fill: none; opacity: .27;">
                  <path d="m411.34,435.79c.56.32,1,1.1,1,1.74l-.05,17.48c0,.64-.45.9-1.01.58l-22.13-12.78c-.56-.32-1.01-1.1-1-1.74l.05-17.48c0-.64.45-.9,1.01-.58l22.13,12.78Z" style="fill: #fafafa;"/>
                </g>
                <g style="fill: none; opacity: .27;">
                  <path d="m407.71,385.07c.25.15.46.5.46.79l-.02,7.94c0,.29-.21.41-.46.26l-10.05-5.8c-.25-.15-.46-.5-.46-.79l.02-7.94c0-.29.21-.41.46-.26l10.05,5.8Z" style="fill: #fafafa;"/>
                </g>
              </g>
              <g style="fill: none; mix-blend-mode: overlay;">
                <g style="fill: none; opacity: .62;">
                  <path d="m202.33,410.57c-.56.32-1,1.1-1,1.74l.05,17.48c0,.64.45.9,1.01.58l22.13-12.78c.56-.32,1.01-1.1,1-1.74l-.05-17.48c0-.64-.45-.9-1.01-.58l-22.13,12.78Z" style="fill: #fafafa;"/>
                </g>
                <g style="fill: none; opacity: .27;">
                  <path d="m185.83,447.23c-.56.32-1,1.1-1,1.74l.05,17.48c0,.64.45.9,1.01.58l22.13-12.78c.56-.32,1.01-1.1,1-1.74l-.05-17.48c0-.64-.45-.9-1.01-.58l-22.13,12.78Z" style="fill: #fafafa;"/>
                </g>
                <g style="fill: none; opacity: .27;">
                  <path d="m189.46,396.51c-.25.15-.46.5-.46.79l.02,7.94c0,.29.21.41.46.26l10.05-5.8c.25-.15.46-.5.46-.79l-.02-7.94c0-.29-.21-.41-.46-.26l-10.05,5.8Z" style="fill: #fafafa;"/>
                </g>
              </g>
              <g style="fill: none; mix-blend-mode: overlay;">
                <g style="fill: none; opacity: .62;">
                  <path d="m329.42,324.7c-.56.32-1,1.1-1,1.74l.05,17.48c0,.64.45.9,1.01.57l22.13-12.78c.56-.32,1.01-1.1,1-1.74l-.05-17.48c0-.64-.45-.9-1.01-.58l-22.13,12.78Z" style="fill: #fafafa;"/>
                </g>
                <g style="fill: none; opacity: .27;">
                  <path d="m312.92,361.36c-.56.32-1,1.1-1,1.74l.05,17.48c0,.64.45.9,1.01.57l22.13-12.78c.56-.32,1.01-1.1,1-1.74l-.05-17.48c0-.64-.45-.9-1.01-.58l-22.13,12.78Z" style="fill: #fafafa;"/>
                </g>
                <g style="fill: none; opacity: .27;">
                  <path d="m316.55,310.64c-.25.15-.46.5-.46.79l.02,7.94c0,.29.21.41.46.26l10.05-5.8c.25-.15.46-.5.46-.79l-.02-7.94c0-.29-.21-.41-.46-.26l-10.05,5.8Z" style="fill: #fafafa;"/>
                </g>
              </g>
              <g style="fill: none; mix-blend-mode: overlay;">
                <g style="fill: none; opacity: .62;">
                  <path d="m456.58,404.36c-.56.32-1,1.1-1,1.74l.05,17.48c0,.64.45.9,1.01.57l22.13-12.78c.56-.32,1.01-1.1,1-1.74l-.05-17.48c0-.64-.45-.9-1.01-.58l-22.13,12.78Z" style="fill: #fafafa;"/>
                </g>
                <g style="fill: none; opacity: .27;">
                  <path d="m440.08,441.02c-.56.32-1,1.1-1,1.74l.05,17.48c0,.64.45.9,1.01.58l22.13-12.78c.56-.32,1.01-1.1,1-1.74l-.05-17.48c0-.64-.45-.9-1.01-.58l-22.13,12.78Z" style="fill: #fafafa;"/>
                </g>
                <g style="fill: none; opacity: .27;">
                  <path d="m443.7,390.3c-.25.15-.46.5-.46.79l.02,7.94c0,.29.21.41.46.26l10.05-5.8c.25-.15.46-.5.46-.79l-.02-7.94c0-.29-.21-.41-.46-.26l-10.05,5.8Z" style="fill: #fafafa;"/>
                </g>
              </g>
              <g style="fill: none; mix-blend-mode: overlay;">
                <g style="fill: none; opacity: .62;">
                  <path d="m334.35,480.76c-.56.32-1,1.1-1,1.74l.05,17.48c0,.64.45.9,1.01.58l22.13-12.78c.56-.32,1.01-1.1,1-1.74l-.05-17.48c0-.64-.45-.9-1.01-.58l-22.13,12.78Z" style="fill: #fafafa;"/>
                </g>
                <g style="fill: none; opacity: .27;">
                  <path d="m317.85,517.42c-.56.32-1,1.1-1,1.74l.05,17.48c0,.64.45.9,1.01.58l22.13-12.78c.56-.32,1.01-1.1,1-1.74l-.05-17.48c0-.64-.45-.9-1.01-.58l-22.13,12.78Z" style="fill: #fafafa;"/>
                </g>
                <g style="fill: none; opacity: .27;">
                  <path d="m321.47,466.7c-.25.15-.46.5-.46.79l.02,7.94c0,.29.21.41.46.26l10.05-5.8c.25-.15.46-.5.46-.79l-.02-7.94c0-.29-.21-.41-.46-.26l-10.05,5.8Z" style="fill: #fafafa;"/>
                </g>
              </g>
            </g>
          </g>
          <g>
            <g>
              <ellipse cx="110.79" cy="587.49" rx="60.54" ry="30.95" transform="translate(-1.8 .34) rotate(-.18)" style="fill: url(#linear-gradient-31); mix-blend-mode: overlay;"/>
              <path d="m148.46,585.22c.03,10.35-16.35,18.79-36.6,18.85s-36.68-8.28-36.71-18.63c-.03-10.35,16.35-18.79,36.6-18.85,20.24-.06,36.68,8.28,36.71,18.63Z" style="fill: url(#linear-gradient-32); mix-blend-mode: overlay;"/>
            </g>
            <g>
              <g>
                <path d="m98.72,584.59s-.53,4.74-.22,6.52c.48,1.21,1.9.98,2.62.69.61-.3.7-1.34.7-1.34,0,0,.11.01.78.42.67.41,2.22-.04,2.99-.79s4.62-2.06,5.1-4.93c-.78-.42-4.4.9-6.1.4s-2.41-1.84-2.41-1.84l-3.46.87Z" style="fill: #642f41;"/>
                <path d="m104.96,538.22s-.6,17.69-1.17,21.6c-.17,4.65-1.41,24.38-1.41,24.38-.06.7-2.52,2.12-3.6,1.09-.83-1.24-2.75-14.01-1.58-19.51s-3.45-19.44-2.51-24.96,9.96-9.87,10.26-2.61Z" style="fill: #ff9d6f;"/>
                <path d="m107.93,586.79c1.13-.95-.09-1.36-.09-1.36,0,0,.02.08.02,0-1.18.21-2.45.39-3.27.15-1.71-.5-2.41-1.84-2.41-1.84l-3.46.87s-.09,1-.17,2.31c1.18.95,3.3-.42,4.78.37,1.59.84,3.46.47,4.59-.48Z" style="fill: #ff9d6f;"/>
              </g>
              <path d="m103.92,558.7c.3-3.05.59-9.21.79-13.98l-10.12-2.85c-.14,2.66.55,6.59,1.29,10.61,2.21,1.08,5.76,3.15,8.04,6.22Z" style="fill: #ff7c40;"/>
              <g>
                <path d="m110.97,584.85s0,4.77.47,6.51c.58,1.16,1.98.81,2.67.47.58-.35.47-1.4.47-1.4,0,0,.23,0,.93.35.7.35,2.21,1.16,2.91.35.7-.81,4.3-3.84,4.53-6.74-.81-.35-4.3,1.28-6.05.93-1.74-.35-2.56-1.63-2.56-1.63l-3.37,1.16Z" style="fill: #642f41;"/>
                <path d="m113.18,538.11s.93,17.67.7,21.62c.23,4.65.7,24.41.7,24.41,0,.7-2.33,2.33-3.49,1.4-.93-1.16-3.95-13.72-3.26-19.3s-5.12-19.07-4.65-24.65c.47-5.58,9.07-10.7,10-3.49Z" style="fill: #ff9d6f;"/>
                <path d="m120.33,586.24c1.05-1.05-.2-1.35-.2-1.35,0,0,.03.08.02-.01-1.16.31-2.41.6-3.25.43-1.74-.35-2.56-1.63-2.56-1.63l-3.37,1.16s0,1.01.03,2.32c1.25.84,3.25-.7,4.79-.05,1.66.7,3.49.17,4.53-.87Z" style="fill: #ff9d6f;"/>
              </g>
              <path d="m97.08,526.6s-5.06,7.67-3.31,16.74c1.05,5.41,1.92,7.85,1.92,7.85,0,0,6.63,2.96,14.13,1.74,5.06-1.39,5.23-2.62,5.23-2.62,0,0,0-16.04-.52-19.36-.52-3.31-17.44-4.36-17.44-4.36Z" style="fill: #642f41;"/>
              <path d="m114.15,501.06c-2.73-4.38-8.65-5.67-8.65-5.67-7.27-1.49-9.59,1.16-9.59,1.16,0,0-2.37,2.79-2.37,6.56,0,2.58,2.71,10.04,2.9,15.95-.08,4.1-2.6,10.92-2.7,11.96-.2,2.03,6.71,7.93,19.33,4.68,1.42-.81,2.03-1.83,2.03-1.83l.14-15.25c.06-.85.11-1.74.17-2.69.63-10.04-1.26-14.86-1.26-14.86Z" style="fill: #047cff;"/>
              <path d="m137.37,504.66l.36-1.78.1-2.34s.41-.46.86-.15c.46.31.46,1.02.46,1.02l.56.71-2.34,2.54Z" style="fill: #ff7c40;"/>
              <path d="m95.91,496.54s-5.28,3.04-6.09,16.95c.68,2.57,4.73,3.92,7.83,1.89,3.11-2.03-.11-16.48-1.75-18.84Z" style="fill: #047cff;"/>
              <path d="m141.49,500.77s1.15,1.65,1.36,2.77c.2,1.12-1.32,3.35-2.13,3.96-.81.61-2.74.81-2.74.81,0,0-9.85,6.6-11.48,6.7-1.63.1-3.96-.81-3.76-3.45,0,0,12.09-5.38,13.71-6.3,1.62-.91,2.84-4.27,3.45-4.98,0,0,1.24-1.65,1.47-1.85s1.53-.61,1.53-.61c0,0,.99-.34,1.11-.31.11.04.23.69-.34,1.11-.57.42-1.6.76-1.6.76l-.57,1.37Z" style="fill: #ff9d6f;"/>
              <path d="m99.82,490.07s.63,3.66,0,5.34c-.1.84,3.56,3.66,6.8,2.93,1.88-.42,1.78-1.36,1.78-1.36,0,0-1.57-2.62-1.36-5.13s-5.02-2.3-7.22-1.78Z" style="fill: #ff7c40;"/>
              <g>
                <path d="m112.06,482.69c0,4.77-3.86,8.63-8.63,8.63s-8.63-3.86-8.63-8.63,3.86-8.63,8.63-8.63,8.63,3.86,8.63,8.63Z" style="fill: #ff9d6f;"/>
                <path d="m112.06,483.27s.27,8.15-1.61,9.89-4.94-1.14-9.56-2.22c-4.62-1.19,3.75-10.18,3.75-10.18l7.43,2.5Z" style="fill: #ff9d6f;"/>
              </g>
              <path d="m110.08,497.2l-2.25-1.26s-5.76-.54-7.83-1.89l-1.08,1.53s1.44,2.79,5.13,3.15c3.69.36,5.4-1.08,5.4-1.08l.63-.45Z" style="fill: #fff;"/>
              <path d="m134.32,505.83l1.83-.76s2.39.92,1.78,3.66l-1.58,1.02-2.03-3.92Z" style="fill: #fff;"/>
              <path d="m110.08,497.2s4,2.48,5.53,3.6c1.53,1.12,5.39,10.38,5.39,10.38l13.73-5.8s2.85,1.93,1.93,4.58c0,0-12.92,8.44-16.17,9.05-3.25.61-10.99-12.21-10.99-12.21,0,0-4.34-3.33.58-9.6Z" style="fill: #047cff;"/>
              <path d="m109.52,474.64s3.14,2.79,2.62,5.93c-.52,3.14-4.71,4.01-4.88,7.32-.17,3.31,2.9,4.41.58,8.05-2.32,3.64-.4,5.91-3.72,9.04-3.31,3.14-10.81,1.92-11.68-2.96-.87-4.88,2.09-6.1,1.92-9.59-.17-3.49-3.14-8.2-1.05-11.51,2.09-3.31,2.44-5.58,4.71-6.63,2.27-1.05,6.98-2.79,11.51.35Z" style="fill: url(#linear-gradient-33);"/>
            </g>
          </g>
          <g>
            <g>
              <path d="m10.81,146.81C4.82,150.27-.02,158.65,0,165.53l.39,137.24c.02,6.89,4.89,9.66,10.88,6.2l200.87-115.97c5.99-3.46,10.83-11.84,10.81-18.73l-.39-137.25c-.02-6.89-4.89-9.66-10.88-6.2L10.81,146.81Z" style="fill: url(#linear-gradient-34);"/>
              <g>
                <path d="m159.18,93.96c18.5-10.68,36.02-7.96,43.26,8.88,9.06,21.05-1.24,56.51-23.04,81.03l-5.06-11.77c14.77-17.23,21.65-41.58,15.38-56.14-5.11-11.87-17.45-13.79-30.49-6.26-3.18,1.84-6.4,4.23-9.57,7.18l-5.06-11.77c4.82-4.63,9.74-8.35,14.58-11.15Z" style="fill: #f1f1f1;"/>
                <path d="m144.6,105.11l5.05,11.76c-.8.74-1.59,1.52-2.38,2.34-16.79,17.3-24.99,43.86-18.32,59.36.25.55.5,1.09.78,1.61.1.19.2.37.31.55,4.86,8.55,14.16,10.63,24.47,6.5,1.61-.64,3.25-1.44,4.9-2.4.44-.25.88-.52,1.32-.8.81-.5,1.42-.92,2.03-1.33l.28-.2c1.32-.94,2.64-1.95,3.96-3.08.16-.14.33-.29.5-.43.49-.43.97-.87,1.46-1.32.18-.16.36-.33.54-.51.64-.6,1.27-1.22,1.9-1.86,1.02-1.05,1.99-2.13,2.94-3.22l5.06,11.77c-.96,1.08-1.94,2.16-2.94,3.19-.9.92-1.8,1.81-2.71,2.66-.25.24-.51.49-.77.73-.69.64-1.39,1.27-2.09,1.88-.23.21-.47.42-.7.61-1.88,1.6-3.76,3.06-5.64,4.38-.15.11-.3.21-.45.31-.86.61-1.72,1.16-2.57,1.7l-.3.18c-.59.36-1.17.71-1.75,1.05-1.39.8-2.77,1.53-4.14,2.18-1.04.49-2.02.91-2.99,1.3-15.73,6.24-29.82,2.3-36.12-12.36-9.45-21.98,2.19-59.69,25.99-84.22.79-.81,1.59-1.59,2.38-2.35Z" style="fill: url(#linear-gradient-35);"/>
              </g>
              <g>
                <path d="m263.89,89.48v3.6c-.02,2.12-2.32,3.44-4.15,2.38l-16.99-9.86c-.85-.49-1.38-1.41-1.37-2.39v-3.6c.02-2.12,2.32-3.44,4.15-2.38l16.99,9.85c.85.5,1.38,1.41,1.37,2.39Z" style="fill: #fff;"/>
                <path d="m317.62,138.4v3.61c-.02,2.12-2.31,3.44-4.15,2.38l-70.77-40.86c-.86-.49-1.38-1.41-1.38-2.4v-3.61c.02-2.12,2.31-3.44,4.15-2.38l70.77,40.86c.86.49,1.38,1.41,1.38,2.4Z" style="fill: #fff;"/>
                <g style="fill: none; opacity: .53;">
                  <path d="m288.34,157.41v3.61c-.02,2.12-2.31,3.44-4.15,2.38l-41.59-24.01c-.86-.49-1.38-1.41-1.38-2.4v-3.61c.02-2.12,2.31-3.44,4.15-2.38l41.59,24.01c.86.49,1.38,1.41,1.38,2.4Z" style="fill: #fff;"/>
                </g>
                <path d="m306.6,149.99v3.61c-.02,2.12-2.31,3.44-4.15,2.38l-59.79-34.52c-.86-.49-1.38-1.41-1.38-2.4v-3.61c.02-2.12,2.31-3.44,4.15-2.38l59.79,34.52c.86.49,1.38,1.41,1.38,2.4Z" style="fill: #31c178;"/>
              </g>
            </g>
            <g>
              <g style="fill: none; isolation: isolate;">
                <path d="m267.45,296.37l-66.95,38.91-.02,11.56,65.5-38.07c.91-.53,1.47-1.5,1.47-2.56v-9.84Z" style="fill: url(#linear-gradient-36);"/>
                <path d="m133.28,296.37v9.96c0,1.06.56,2.03,1.48,2.56l65.72,37.94.02-11.65-67.22-38.81Z" style="fill: url(#linear-gradient-37);"/>
                <path d="m266.4,297.94l-63.02,36.63c-1.78,1.03-3.97,1.04-5.75,0l-63.45-36.63c-1.18-.68-1.18-2.37,0-3.06l62.6-36.38c2.04-1.19,4.56-1.19,6.6,0l63.02,36.39c1.18.68,1.18,2.37,0,3.06Z" style="fill: #f2f8fd;"/>
                <path d="m240.75,298.33l-37.76,21.95c-1.59.92-3.55.93-5.14,0l-38.03-21.96c-1.48-.85-1.48-2.98,0-3.84l37.99-22.08c1.45-.84,3.23-.84,4.68,0l38.26,22.09c1.48.85,1.48,2.98,0,3.84Z" style="fill: url(#linear-gradient-38);"/>
              </g>
              <g style="fill: none; isolation: isolate;">
                <path d="m267.45,271.71l-66.95,38.91-.02,11.56,65.5-38.07c.91-.53,1.47-1.5,1.47-2.56v-9.84Z" style="fill: url(#linear-gradient-39);"/>
                <path d="m133.28,271.71v9.96c0,1.06.56,2.03,1.48,2.56l65.72,37.94.02-11.65-67.22-38.81Z" style="fill: url(#linear-gradient-40);"/>
                <path d="m266.4,273.28l-63.02,36.63c-1.78,1.03-3.97,1.04-5.75,0l-63.45-36.63c-1.18-.68-1.18-2.38,0-3.06l62.6-36.38c2.04-1.19,4.56-1.19,6.6,0l63.02,36.39c1.18.68,1.18,2.37,0,3.06Z" style="fill: #f2f8fd;"/>
                <path d="m240.75,273.66l-37.76,21.95c-1.59.92-3.55.93-5.14,0l-38.03-21.96c-1.48-.85-1.48-2.98,0-3.84l37.99-22.08c1.45-.84,3.23-.84,4.68,0l38.26,22.09c1.48.85,1.48,2.98,0,3.84Z" style="fill: url(#linear-gradient-41);"/>
              </g>
            </g>
            <g>
              <path d="m30.86,225.8c1.72-.99,3.13-.19,3.14,1.79l.07,24.43-13.13,7.58-.07-24.43c0-1.98,1.39-4.4,3.12-5.4l6.88-3.97Z" style="fill: #fff;"/>
              <path d="m52.07,198.09c1.72-.99,3.13-.21,3.14,1.79l.11,39.87-13.13,7.58-.11-39.87c0-1.99,1.39-4.4,3.12-5.4l6.88-3.97Z" style="fill: #fff;"/>
              <path d="m73.31,177.9c1.73-1,3.13-.19,3.14,1.79l.14,47.78-13.12,7.58-.14-47.78c0-1.98,1.38-4.4,3.12-5.4l6.87-3.97Z" style="fill: url(#linear-gradient-42);"/>
              <path d="m94.56,158.07c1.72-.99,3.13-.19,3.14,1.79l.16,55.33-13.13,7.58-.16-55.33c0-1.98,1.39-4.4,3.12-5.4l6.88-3.97Z" style="fill: #fff;"/>
            </g>
            <g>
              <path d="m212.84,179.16s5.83,3.36,6.72,18.72c-.75,2.83-5.22,4.33-8.65,2.09-3.43-2.24.13-18.2,1.93-20.81Z" style="fill: url(#linear-gradient-43);"/>
              <path d="m183.21,195.75s-13.35-5.95-15.14-6.96c-1.79-1.01-3.14-4.71-3.81-5.5-.67-.79-3.7-2.58-3.59-1.79s1.68,2.24,1.68,2.24c0,0-1.12,1.91-1.35,3.14-.22,1.23,1.46,3.7,2.36,4.37.9.67,3.03.9,3.03.9,0,0,10.88,7.29,12.68,7.4,1.79.11,4.37-.9,4.15-3.81Z" style="fill: #ff9d6f;"/>
              <path d="m210.38,268.47s.35,2.54-.12,3.58c-.46.92-2.31,1.62-3.58.69-1.27-.92-3.47-3.24-3.47-3.24,0,0-3.7-1.96-4.04-3s.92-1.96,1.96-1.73c1.04.23,4.04,2.08,5.43,2.08s3.35.35,3.81,1.62Z" style="fill: #113c7a;"/>
              <path d="m214.19,214.35s-3.23,53.38-3.64,54.93-4.6,2.43-5.38-.02c-.49-1.56-1.71-50.96-1.71-50.96l10.73-3.95Z" style="fill: #113c7a;"/>
              <path d="m199.68,271.64c.18.16.28.38.28.62,0,.73-.03,2.37-.44,3.01-.54.83-2.24,1.72-4.02.75-1.5-.81-6.1-4.26-7.04-5.02-.57-.46-.82-1.03-.93-1.47-.1-.4.1-.8.47-.97.65-.29,1.77-.65,2.77-.32,1.53.51,3.45,2.17,5.53,2.08,1.56-.07,2.84.86,3.38,1.32Z" style="fill: #113c7a;"/>
              <path d="m192.54,214.92c.23-2.22,2.89-2.94,5.33-2.18,4.67-.25,11.89-.05,12.14,3.57.37,5.36-2.14,9.19-4.56,11.79-1.79,1.92-2.98,5.6-3.48,7.39-.42,14.16-1.36,34.12-1.95,36.03-.94,3.08-5.59,2.94-5.8-.06-.94-10.13-1.68-56.54-1.68-56.54Z" style="fill: #113c7a;"/>
              <path d="m192.53,216.59c.55,2.74,8.35,4.11,12.92,3.38,4.57-.73,9.48-2.97,9.32-8.26,0,0,.69-21.15.69-25.31s-2.62-7.24-2.62-7.24c0,0-2.56-2.92-10.59-1.28,0,0-6.55,1.43-9.56,6.27,0,0-2.08,5.32-1.39,16.41.69,11.09,1.22,16.04,1.22,16.04Z" style="fill: url(#linear-gradient-44);"/>
              <path d="m208.53,172.01s-.69,4.04,0,5.89c.12.92-3.93,4.04-7.51,3.24-2.08-.46-1.96-1.5-1.96-1.5,0,0,1.73-2.89,1.5-5.66-.23-2.77,5.55-2.54,7.97-1.96Z" style="fill: #ff7c40;"/>
              <g>
                <path d="m195.01,163.86c0,5.27,4.27,9.53,9.53,9.53s9.53-4.27,9.53-9.53-4.27-9.53-9.53-9.53-9.53,4.27-9.53,9.53Z" style="fill: #ff9d6f;"/>
                <path d="m195.01,164.5s-.12,9.55,1.96,11.48c2.08,1.93,5.27-1.8,10.38-3,5.11-1.31-4.14-11.24-4.14-11.24l-8.21,2.76Z" style="fill: #ff9d6f;"/>
              </g>
              <g>
                <path d="m195.78,181.92s-2.09-.6-4.48,2.83c-2.39,3.43-5.82,7.91-7.46,8.65-1.64.75-3.88-.75-4.77-.75s-3.28,4.18-2.39,6.26c.9,2.09,6.71,3.13,8.2,3.13s11.19-5.82,12.53-9.1c1.34-3.28,3.43-10.89-1.64-11.04Z" style="fill: url(#linear-gradient-45);"/>
                <path d="m180.41,193.11s-.6-1.64-2.69-1.79c-2.09-.15-4.48,3.88-4.33,6.12.15,2.24,3.43,3.43,4.18,2.83.75-.6-.75-2.09,2.83-7.16Z" style="fill: url(#linear-gradient-46);"/>
              </g>
              <path d="m198.83,155.82s-3.43.75-4.48,5.97c.45,2.24,3.58.45,4.77,3.43,1.19,2.98,1.94,3.88,1.94,3.88l.75-.3s0-2.39,1.04-2.39,1.34,2.83.75,4.03-1.94,1.79-1.94,1.79c0,0,1.49,2.54,2.24,2.83.75.3,3.43-.3,4.48-.75,1.04-.45,2.98-2.54,4.48-4.92,1.49-2.39,2.83-6.56,1.94-9.4s-2.98-3.58-2.98-3.58c0,0-1.19-1.64-3.28-2.39-2.09-.75-5.97-1.04-9.7,1.79Z" style="fill: #5167b0;"/>
              <path d="m197.19,179.88l2.49-1.39s6.36-.6,8.65-2.09l1.19,1.69s-1.59,3.08-5.67,3.48c-4.08.4-5.97-1.19-5.97-1.19l-.7-.5Z" style="fill: #cfdae4;"/>
            </g>
          </g>
          <g>
            <g style="fill: none; isolation: isolate;">
              <path d="m385.09,694.6l-34.88,20.27v6.02s34.11-19.83,34.11-19.83c.47-.28.77-.78.77-1.33v-5.13Z" style="fill: url(#linear-gradient-47);"/>
              <path d="m315.18,694.6v5.19c0,.55.29,1.06.77,1.33l34.24,19.77v-6.07s-35.01-20.22-35.01-20.22Z" style="fill: url(#linear-gradient-48);"/>
              <path d="m384.54,695.42l-32.84,19.08c-.93.54-2.07.54-3,0l-33.06-19.09c-.61-.35-.61-1.24,0-1.59l32.61-18.95c1.06-.62,2.38-.62,3.44,0l32.84,18.96c.61.35.61,1.24,0,1.59Z" style="fill: #f2f8fd;"/>
              <path d="m371.18,695.62l-19.68,11.43c-.83.48-1.85.48-2.68,0l-19.81-11.44c-.77-.44-.77-1.55,0-2l19.79-11.5c.75-.44,1.68-.44,2.44,0l19.93,11.51c.77.44.77,1.55,0,2Z" style="fill: url(#linear-gradient-49);"/>
            </g>
            <g style="fill: none; isolation: isolate;">
              <path d="m436.48,727.15l-34.88,20.27v6.02s34.11-19.83,34.11-19.83c.47-.28.77-.78.77-1.33v-5.13Z" style="fill: url(#linear-gradient-50);"/>
              <path d="m366.58,727.15v5.19c0,.55.29,1.06.77,1.34l34.24,19.77v-6.07s-35.01-20.22-35.01-20.22Z" style="fill: url(#linear-gradient-51);"/>
              <path d="m435.93,727.97l-32.84,19.08c-.93.54-2.07.54-3,0l-33.06-19.09c-.61-.35-.61-1.24,0-1.59l32.61-18.95c1.06-.62,2.38-.62,3.44,0l32.84,18.96c.61.35.61,1.24,0,1.59Z" style="fill: #f2f8fd;"/>
              <path d="m422.57,728.17l-19.68,11.43c-.83.48-1.85.48-2.68,0l-19.81-11.44c-.77-.44-.77-1.55,0-2l19.79-11.5c.75-.44,1.68-.44,2.44,0l19.93,11.51c.77.44.77,1.55,0,2Z" style="fill: url(#linear-gradient-52);"/>
            </g>
          </g>
          <g>
            <g style="fill: none; opacity: .38;">
              <path d="m226.34,685.14l-58.36,33.91c-2.45,1.43-5.48,1.43-7.94.01l-58.77-33.93c-2.28-1.32-2.29-4.61,0-5.93l58.71-34.12c2.24-1.3,5-1.3,7.23-.01l59.12,34.14c2.28,1.32,2.29,4.61,0,5.93Z" style="fill: url(#linear-gradient-53);"/>
            </g>
            <g style="fill: none; opacity: .38;">
              <path d="m534.71,805.92l-58.36,33.91c-2.45,1.43-5.48,1.43-7.94.01l-58.77-33.93c-2.28-1.32-2.29-4.61,0-5.93l58.71-34.12c2.24-1.3,5-1.3,7.23-.01l59.12,34.14c2.28,1.32,2.29,4.61,0,5.93Z" style="fill: url(#linear-gradient-54);"/>
            </g>
            <g style="fill: none; opacity: .38;">
              <path d="m977.44,668.39l-32.68,18.99c-1.37.8-3.07.8-4.45,0l-32.91-19c-1.28-.74-1.28-2.58,0-3.32l32.88-19.11c1.25-.73,2.8-.73,4.05,0l33.11,19.12c1.28.74,1.28,2.58,0,3.32Z" style="fill: url(#linear-gradient-55);"/>
            </g>
          </g>
          <g>
            <g>
              <g>
                <path d="m790.74,823.43c-.43,7.83-5.96,14.15-12.15,18.41-7.49,5.16-16.48,8.09-25.4,9.57-17.7,2.92-38.28.98-53.61-9.01-6.89-4.49-13.24-11.49-13.21-20.19-.02,6.07-.21-.6-.05,5.47.37,14.07,15.37,22.4,27.12,26.18,14.42,4.64,30.65,5.03,45.35,1.44,12.24-2.99,28.03-9.94,31.39-23.5.9-3.64.55-7.64.56-11.36.01-3.57.02,5.64.03,2.07,0,.31-.02.61-.04.92Z" style="fill: url(#linear-gradient-56);"/>
                <path d="m775.38,800.98c20.45,11.81,20.56,30.95.23,42.76-20.32,11.81-53.36,11.81-73.81,0-20.45-11.81-20.57-30.96-.25-42.76,20.33-11.81,53.39-11.81,73.84,0Zm-66.73,38.78c16.65,9.61,43.54,9.6,60.07,0,16.54-9.61,16.46-25.19-.18-34.8-16.65-9.61-43.55-9.61-60.09,0-16.53,9.6-16.44,25.19.21,34.8" style="fill: #dcdcdc;"/>
                <path d="m775.38,800.98c20.45,11.81,20.56,30.95.23,42.76-20.32,11.81-53.36,11.81-73.81,0-20.45-11.81-20.57-30.96-.25-42.76,20.33-11.81,53.39-11.81,73.84,0Z" style="fill: url(#linear-gradient-57);"/>
              </g>
              <path d="m775.21,820.99c.12-.63.19-1.28.18-1.93,0-.62-.07-1.24-.18-1.85v-184.31h-73.33v188.09h.16c1.71,9.57,17.47,17.04,36.65,16.98,19.03-.06,34.66-7.5,36.51-16.98h0Z" style="fill: url(#linear-gradient-58); mix-blend-mode: overlay; opacity: .57;"/>
            </g>
            <g>
              <g>
                <path d="m892.67,770.32c-.43,7.83-5.96,14.15-12.15,18.41-7.49,5.16-16.48,8.09-25.4,9.57-17.7,2.92-38.28.98-53.61-9.01-6.89-4.49-13.24-11.49-13.21-20.19-.02,6.07-.2-.6-.05,5.47.37,14.07,15.37,22.4,27.12,26.18,14.42,4.64,30.65,5.03,45.35,1.44,12.24-2.99,28.03-9.94,31.39-23.5.9-3.64.55-7.64.56-11.36.01-3.57.02,5.64.03,2.07,0,.31-.02.61-.04.92Z" style="fill: url(#linear-gradient-59);"/>
                <path d="m877.31,747.88c20.45,11.81,20.56,30.95.23,42.76-20.32,11.81-53.36,11.81-73.81,0-20.45-11.81-20.57-30.96-.25-42.76,20.33-11.81,53.39-11.81,73.84,0Zm-66.73,38.78c16.65,9.61,43.54,9.6,60.07,0,16.54-9.61,16.46-25.19-.18-34.8-16.65-9.61-43.55-9.61-60.09,0-16.53,9.6-16.44,25.19.21,34.8" style="fill: #dcdcdc;"/>
                <path d="m877.31,747.88c20.45,11.81,20.56,30.95.23,42.76-20.32,11.81-53.36,11.81-73.81,0-20.45-11.81-20.57-30.96-.25-42.76,20.33-11.81,53.39-11.81,73.84,0Z" style="fill: #2689fd;"/>
              </g>
              <path d="m877.99,768.31c.12-.63.19-1.28.18-1.93,0-.62-.07-1.24-.18-1.85v-184.31h-73.33v188.09h.16c1.71,9.57,17.47,17.04,36.65,16.98,19.03-.06,34.66-7.5,36.51-16.98h0Z" style="fill: url(#linear-gradient-60); mix-blend-mode: overlay; opacity: .57;"/>
            </g>
          </g>
          <g>
            <g style="fill: none; opacity: .38;">
              <path d="m875.13,669.26l-235.38,136.79c-9.9,5.75-22.12,5.77-32.03.05l-237.05-136.86c-9.2-5.31-9.22-18.58-.03-23.92l236.8-137.61c9.02-5.24,20.15-5.26,29.18-.04l238.47,137.68c9.2,5.31,9.22,18.58.03,23.92Z" style="fill: url(#linear-gradient-61);"/>
            </g>
            <g>
              <polygon points="718.73 527.06 718.43 575.19 691.64 598.57 667.73 598.57 667.73 545.23 718.73 527.06" style="fill: #2689fd;"/>
              <polygon points="718.43 570.34 718.23 638.39 672.86 664.76 673.06 594.95 718.43 570.34" style="fill: #bb4f23;"/>
              <path d="m662.97,548.45c-2.82-1.11-6.04-2.24-9.04-3.1-2.45-.7-4.96-1.31-7.51-1.84-2.35-.49-4.73-.9-7.14-1.24-2.31-.33-4.65-.59-7-.78-2.35-.19-4.72-.32-7.09-.38-2.46-.06-4.92-.05-7.37.03-2.67.09-5.34.27-7.98.53-3.1.31-6.16.73-9.18,1.28-4.69.85-9.26,1.98-13.63,3.39-5.66,1.83-10.97,4.14-15.77,6.94-.3.17-.59.34-.88.52-3.5,2.1-6.53,4.37-9.12,6.75-1.68,1.55-3.17,3.16-4.46,4.8-1.11,1.41-2.07,2.84-2.9,4.3-.76,1.35-1.4,2.71-1.92,4.09-.5,1.34-.89,2.69-1.16,4.05-.28,1.37-.43,2.75-.47,4.13,0,.21,0,.42-.01.63l-.2,71.56c0-.21,0-.42.01-.63.04-1.38.2-2.76.47-4.13.27-1.36.66-2.71,1.16-4.05.52-1.38,1.16-2.75,1.92-4.09.82-1.46,1.79-2.89,2.9-4.3,1.29-1.64,2.78-3.25,4.47-4.8,2.58-2.38,5.62-4.65,9.12-6.75.29-.17.58-.35.88-.52,4.8-2.79,10.12-5.1,15.77-6.94,4.37-1.42,8.94-2.55,13.63-3.39,3.02-.54,6.08-.97,9.18-1.28,2.64-.26,5.31-.44,7.98-.53,2.45-.08,4.92-.1,7.37-.03,2.37.06,4.74.19,7.09.38,2.35.19,4.69.45,7,.78,2.41.34,4.79.76,7.14,1.24,2.55.53,5.06,1.14,7.51,1.84,3,.86,5.93,1.84,8.74,2.95,3.66,1.44,7.25,3.19,10.5,5.07l.39-71.5c-3.25-1.88-6.73-3.54-10.39-4.98Z" style="fill: url(#linear-gradient-62);"/>
              <g style="fill: none; isolation: isolate;">
                <path d="m694.31,622.88l-.2,31.65c.03-10.74-7.06,18.43-21.25,10.23l.2-69.81c14.19,8.19,21.28,17.19,21.25,27.93Z" style="fill: #1e079d;"/>
                <g style="clip-path: url(#clippath); fill: none;">
                  <path d="m694.31,622.88l-.2,31.65c.03-10.74-7.06,18.43-21.25,10.23l.2-71.56c14.19,8.19,21.28,18.95,21.25,29.69" style="fill: url(#linear-gradient-63);"/>
                </g>
              </g>
              <path d="m758.69,623.07l-.2,31.65c-.06,20.08-13.26,40.14-39.63,55.46l.2-31.64c26.37-15.32,39.57-35.38,39.63-55.46Z" style="fill: none;"/>
              <path d="m758.67,624.27c-.08,2.61-.37,5.22-.89,7.82-.52,2.57-1.25,5.14-2.2,7.68-.98,2.61-2.19,5.2-3.63,7.75-1.56,2.76-3.39,5.48-5.49,8.15-2.45,3.11-5.27,6.15-8.46,9.09-4.89,4.51-10.65,8.8-17.27,12.79-.55.33-1.17.7-1.73,1.03l-.14,31.6c.56-.33,1.12-.65,1.66-.98,6.62-3.98,12.38-8.27,17.27-12.79,3.19-2.94,6.01-5.98,8.46-9.09,2.1-2.67,3.93-5.39,5.49-8.15,1.44-2.55,2.65-5.14,3.63-7.75.95-2.54,1.69-5.1,2.2-7.68.52-2.6.82-5.21.89-7.82.01-.4.02-.8.02-1.2l.2-31.65c0,.4,0,.8-.02,1.2Z" style="fill: url(#linear-gradient-64);"/>
              <path d="m718.43,570.34c53.43,30.85,53.64,77.38.56,108.23l-45.6-26.41c28.02-16.28,27.87-40.92-.33-57.21l45.37-24.61Z" style="fill: url(#linear-gradient-65);"/>
              <polygon points="719.06 662.82 718.86 710.17 673.19 683.81 673.39 676.37 719.06 662.82" style="fill: #88630a;"/>
              <g style="fill: none; isolation: isolate;">
                <g style="clip-path: url(#clippath-1); fill: none;">
                  <path d="m688.58,676.16c-8.11,2.6-16.57,4.68-25.26,6.25-5.72,1.03-11.54,1.84-17.41,2.42-4.99.5-10.02.83-15.07,1-2.69.09-5.38.14-8.07.14l-.2,47.35c2.69,0,5.38-.05,8.07-.14,5.04-.17,10.08-.51,15.07-1,5.87-.58,11.69-1.39,17.41-2.42,8.69-1.57,17.16-3.65,25.26-6.25,10.94-3.51,21.22-7.95,30.48-13.34l.2-47.35c-9.26,5.38-19.54,9.83-30.48,13.33Z" style="fill: url(#linear-gradient-66);"/>
                </g>
              </g>
              <polygon points="622.77 685.96 622.57 733.31 622.36 696.02 622.56 648.67 622.77 685.96" style="fill: #113c7a;"/>
              <path d="m719.06,662.82c-26.54,15.42-61.39,23.15-96.29,23.14l-.21-37.29c18.41,0,36.82-4.07,50.83-12.21l45.67,26.37Z" style="fill: url(#linear-gradient-67);"/>
              <g style="fill: none; isolation: isolate;">
                <g style="clip-path: url(#clippath-2); fill: none;">
                  <path d="m616.84,661.67c-4.48-.11-8.96-.35-13.41-.72-4.45-.37-8.87-.86-13.25-1.48-4.54-.64-9.03-1.42-13.46-2.34-4.84-1-9.61-2.17-14.28-3.5-5.64-1.61-11.13-3.45-16.43-5.54-6.98-2.75-13.62-5.91-19.81-9.49-26.89-15.52-40.31-35.9-40.26-56.25l-.2,71.56c-.06,20.35,13.37,40.72,40.26,56.25,6.2,3.58,12.83,6.74,19.81,9.49,5.3,2.09,10.79,3.93,16.43,5.54,4.66,1.33,9.43,2.49,14.28,3.5,4.43.92,8.92,1.7,13.46,2.34,4.38.62,8.8,1.11,13.25,1.48,4.45.37,8.93.61,13.41.72,1.98.05,3.95.07,5.93.07l.2-71.56c-1.98,0-3.95-.02-5.93-.07Z" style="fill: url(#linear-gradient-68);"/>
                </g>
              </g>
              <path d="m718.73,527.06l-45.37,26.37c-28.21-16.28-74.08-16.44-102.1-.15-28.02,16.28-27.87,42.69.33,58.98,14.1,8.14,32.55,12.21,50.98,12.21l.21,37.29c-34.91,0-69.85-7.71-96.56-23.13-53.43-30.85-53.71-80.87-.63-111.71,53.08-30.85,139.72-30.69,193.15.15Z" style="fill: url(#linear-gradient-69);"/>
            </g>
          </g>
          <path d="m693.73,629.18c.23-1.16.34-2.35.34-3.54,0-1.15-.12-2.28-.34-3.4v-338.94h-134.84v345.88h.3c3.15,17.61,32.13,31.33,67.4,31.22,34.99-.11,63.73-13.79,67.15-31.22h0Z" style="fill: url(#linear-gradient-70); mix-blend-mode: overlay; opacity: .57;"/>
          <g style="fill: none; isolation: isolate;">
            <polygon points="641.94 445.61 649.22 441.37 649.08 490.83 641.8 495.07 641.94 445.61" style="fill: #00a935;"/>
            <path d="m656.81,444.28s0-.04,0-.06c0-.02,0-.04,0-.06,0-.02,0-.04,0-.06,0-.02,0-.04,0-.06,0-.02,0-.04,0-.06,0-.02,0-.04-.01-.06,0-.02,0-.04-.01-.06,0,0,0-.01,0-.01,0,0,0,0,0,0,0-.02,0-.03-.01-.05,0-.02-.01-.04-.02-.07,0-.02-.01-.04-.02-.07,0-.02-.01-.04-.02-.07,0-.02-.01-.04-.02-.06,0-.02-.02-.04-.02-.06,0-.02-.02-.04-.03-.06,0-.02-.02-.04-.03-.06,0-.02-.02-.04-.03-.07-.01-.02-.02-.04-.03-.07h0s-22.68-45.15-22.68-45.15c0-.02-.02-.04-.03-.06-.02-.04-.04-.07-.06-.11-.04-.06-.07-.12-.11-.18-.02-.03-.05-.07-.07-.1-.02-.02-.04-.05-.05-.07-.02-.02-.03-.04-.05-.06-.02-.02-.03-.04-.05-.06,0-.01-.02-.02-.03-.03h0s-.01-.02-.02-.03c-.02-.02-.03-.04-.05-.05-.02-.02-.04-.04-.05-.05-.02-.02-.04-.04-.06-.05-.02-.02-.04-.03-.06-.05-.02-.02-.04-.03-.06-.05-.02-.01-.04-.03-.06-.04-.02-.01-.04-.03-.06-.04-.02-.01-.04-.02-.05-.04-.02-.01-.04-.02-.05-.03,0,0,0,0-.01,0-.01,0-.03-.02-.04-.02-.02,0-.04-.02-.05-.03s-.03-.02-.05-.02c-.02,0-.03-.01-.05-.02-.02,0-.03-.01-.05-.02-.02,0-.03-.01-.05-.02-.02,0-.04-.01-.05-.01-.02,0-.04,0-.05-.01-.02,0-.04,0-.06,0,0,0-.01,0-.02,0h0s-.02,0-.03,0c-.02,0-.04,0-.06,0-.02,0-.04,0-.07,0-.02,0-.05,0-.07.01-.03,0-.06.01-.09.02-.04.01-.07.03-.11.05l-7.29,4.23c.13-.07.27-.1.43-.08h0c.16.02.32.08.49.17.18.11.37.26.53.44,0,0,0,0,0,0,.17.19.32.41.45.66l22.68,45.15c.11.22.19.43.23.63h0c.04.2.06.39.05.55h0c-.01.17-.05.31-.11.43,0,0,0,0,0,0-.06.12-.15.21-.25.27l7.29-4.23c.09-.05.16-.12.22-.21.01-.02.02-.04.03-.06,0,0,0,0,0,0,0,0,0-.01.01-.02.01-.03.02-.05.03-.08,0-.02.02-.04.02-.07,0-.02.01-.04.02-.07,0-.02,0-.04.01-.06,0-.02,0-.04,0-.06,0-.02,0-.04,0-.06,0,0,0,0,0,0h0s0-.03,0-.05c0-.02,0-.04,0-.06Z" style="fill: #61e041;"/>
            <path d="m625.58,401.18c.37.21.73.6.99,1.11l22.68,45.15c.67,1.34.07,2.43-1,1.81l-6.31-3.64-.14,49.46-33.13-19.13.14-49.46-6.1-3.52c-1.08-.63-1.67-2.39-.98-2.95l22.86-18.86c.26-.21.63-.17.99.04Z" style="fill: #00cc41;"/>
          </g>
          <g>
            <path d="m821.26,526.21l.94-.82,2.23-4.1s.47.47.59,1.05c.12.59-.23,1.87-.23,1.87,0,0,5.15-.23,5.15.12s-.23,2.81-.7,3.05c-.47.23-5.04.23-5.04.23l-1.41.59s-.7-.23-1.52-1.99Z" style="fill: #f5b697;"/>
            <ellipse cx="781.76" cy="603.5" rx="22.05" ry="14.01" style="fill: #392836; mix-blend-mode: multiply; opacity: .11;"/>
            <path d="m776.25,596.8s-.99,1.65-3.08,2.75c-2.09,1.1-3.3,2.2-3.3,3.08s1.32,1.32,3.19,1.21c1.87-.11,2.97-2.2,4.29-2.75s2.86-.66,3.3-1.32c.44-.66,0-3.3,0-3.3l-4.4.33Z" style="fill: #392836;"/>
            <path d="m790.07,601.64s-.17,1.54-1.05,2.2c-.88.66-1.54,1.76-2.97,2.31-1.43.55-2.31,1.76-2.31,2.53s3.08,1.32,4.84.66c1.76-.66,3.63-3.08,4.4-3.41.77-.33,1.32-1.21,1.43-1.76.11-.55-.33-2.64-.33-2.64l-4.02.11Z" style="fill: #392836;"/>
            <path d="m799.24,548.68s-.55,7.77-1.47,12.91c-.92,5.13-2.26,39.02-3.39,40.35-1.14,1.34-2.79,1.2-4.3-.27-1.51-1.47-2.92-43.24-2.92-43.24l-4.59-9.52,16.68-.24Z" style="fill: #392836;"/>
            <path d="m777.68,544.82s-2.2,41.62-1.98,51.31c0,2.86,4.4,3.3,5.51.44,1.1-2.86,5.73-43.61,5.29-48.89-.44-5.29-8.15-6.61-8.81-2.86Z" style="fill: #392836;"/>
            <path d="m792.53,509.16s8.59,6.14,9.44,8.18c.85,2.04,1.03,7.72-.74,11.51-1.77,3.79-1.12,17.72-1.76,20.45-.64,2.73-7.99,3.59-12.54,2.71-4.55-.88-10.05-4.17-9.88-9.47.17-5.3.06-15.19-.23-17.58-.29-2.39.03-8.39,1.13-12.41.23-.85,3.09-1.74,3.09-1.74,0,0,3.02-1.99,11.48-1.63Z" style="fill: #fff;"/>
            <path d="m785.06,508.01s.02.11,0,.28c-.09.63-.41,2.24-.47,2.91-.06.64.68,1.76,2.42,1.73,1.74-.04,4.69-.76,5.68-2.84-.08-.37.04-4.21.29-6.12l-7.91,4.05Z" style="fill: #e0a082;"/>
            <path d="m792.7,509.27s.84,3.26-.04,5.24c-.88,1.98-6.94,18.86-6.94,18.86l-.44,19.38s10.02,3.52,14.76-1.32l.99-19.49s1.98-8.81,1.98-14.09c0,0-.62-1.86-10.31-8.58Z" style="fill: #392836;"/>
            <path d="m784.29,509.7s-1.69,2.43-1.87,6.06c-.66,12.88,3.41,18.39,3.41,18.39l.11,18.94s-6.72-.55-9.58-5.51l-.72-26.12,1.49-9.25s3.08-1.71,7.16-2.51Z" style="fill: #392836;"/>
            <path d="m780.7,495.55c1-5.32,5.21-8.34,9.98-7.23,0,0,5.17.52,7.47,5.06,2.3,4.54-1.08,8.36-3.24,10.77-.91.99-1.6,1.75-2.03,2.24-.16.18-.31.37-.48.54-.03.03-.05.05-.05.05h0c-1.48,1.47-3.17,2.31-4.42,2.68-2.08.62-4.54.27-5.87-1.15-1.33-1.42-2.36-7.63-1.37-12.95Z" style="fill: #f5b697;"/>
            <polygon points="787.6 514.76 788.48 517.29 787.16 518.73 787.93 535.57 783.19 534.58 785.62 518.73 785.29 515.75 786.72 514.54 787.6 514.76" style="fill: #392836;"/>
            <g>
              <path d="m777.14,512.2s-8.59,12.64-9.58,15.94l-7.76-7.43s-1.98-.33-3.3,2.15c-1.32,2.48,0,3.3,0,3.3,0,0,9.41,9.91,11.56,9.91s10.9-13.21,10.9-13.71-1.82-10.16-1.82-10.16Z" style="fill: #392836;"/>
              <path d="m759.3,521.53s.33,2.06-2.64,3.63l-1.07-.91s.08-1.98,2.56-3.47l1.16.74Z" style="fill: #fff;"/>
              <path d="m757.29,520.82l-.89-.99-.46-4.02s-.89,0-1.19.59c-.3.59-.23,1.94-.23,1.94,0,0-4.66-4.26-4.96-4.06-.3.2-.2.99-.2.99l3.37,3.37s-.69,2.28-.5,3.07c.2.79,1.09,1.39,1.59,1.59.5.2,1.78-.2,1.78-.2l1.29.99s1.19-.89,1.68-2.08l-1.29-1.19Z" style="fill: #f5b697;"/>
            </g>
            <g>
              <path d="m802.01,516.65s8.59,12.64,9.58,15.94l7.76-7.43s1.98-.33,3.3,2.15c1.32,2.48,0,3.3,0,3.3,0,0-9.41,9.91-11.56,9.91s-10.9-13.21-10.9-13.71,1.82-10.16,1.82-10.16Z" style="fill: #392836;"/>
              <path d="m819.85,525.99s-.33,2.06,2.64,3.63l1.07-.91s-.08-1.98-2.56-3.47l-1.16.74Z" style="fill: #fff;"/>
            </g>
            <path d="m791.34,498.74s0,.25-.04.66c-.13,1.69-.71,6.13-3.35,7.64-3.28,1.72-5.31,1.41-6.72-.47,0,0-1.09,2.19-.47,3.28.62,1.09,5.94,1.09,7.97-.16s3.44-8.43,3.44-8.43l.31-1.56" style="fill: #392836;"/>
            <path d="m796.55,489.31s-2.89-3.67-6.95-3.2c-4.06.47-5.86-.31-8.9.78-3.05,1.09-1.41,6.48,2.03,7.81,3.44,1.33,8.04.62,8.59,1.17.55.55-.23,6.33-.23,6.33l.86.16s1.02-2.11,2.11-1.8c1.09.31,0,4.3-1.09,4.22h-.55l.31,2.66s3.51-3.51,4.92-5.7c1.41-2.19,3.28-4.69,2.03-6.79-1.25-2.11-.23-4.14-3.12-5.62Z" style="fill: #392836;"/>
          </g>
        </g>
      </g>
    </g>
  </g>
</svg>