<?xml version="1.0" encoding="utf-8"?>
<!-- Generator: Adobe Illustrator 27.7.0, SVG Export Plug-In . SVG Version: 6.00 Build 0)  -->
<svg version="1.1" id="Outline" xmlns="http://www.w3.org/2000/svg" xmlns:xlink="http://www.w3.org/1999/xlink" x="0px" y="0px"
	 viewBox="0 0 256 256" style="enable-background:new 0 0 256 256;" xml:space="preserve">
<style type="text/css">
	.st0{fill:#FFFFFF;}
</style>
<path class="st0" d="M234.7,106.7h-85.3V21.3C149.3,9.6,139.8,0,128,0l0,0c-11.8,0-21.3,9.6-21.3,21.3v85.3H21.3
	C9.6,106.7,0,116.2,0,128l0,0c0,11.8,9.6,21.3,21.3,21.3h85.3v85.3c0,11.8,9.6,21.3,21.3,21.3l0,0c11.8,0,21.3-9.6,21.3-21.3v-85.3
	h85.3c11.8,0,21.3-9.6,21.3-21.3l0,0C256,116.2,246.4,106.7,234.7,106.7z"/>
</svg>
