<?xml version="1.0" encoding="UTF-8"?>
<svg xmlns="http://www.w3.org/2000/svg" xmlns:xlink="http://www.w3.org/1999/xlink" viewBox="0 0 288 288">
  <defs>
    <linearGradient id="linear-gradient" x1="112.2" y1="168.63" x2="30.47" y2="91.6" gradientUnits="userSpaceOnUse">
      <stop offset="0" stop-color="#ff6200"/>
      <stop offset=".14" stop-color="#002b4f"/>
      <stop offset=".21" stop-color="#002f57"/>
      <stop offset=".74" stop-color="#004f91"/>
      <stop offset="1" stop-color="#005ca8"/>
    </linearGradient>
    <linearGradient id="linear-gradient-2" x1="112.3" y1="168.52" x2="30.57" y2="91.49" xlink:href="#linear-gradient"/>
    <linearGradient id="linear-gradient-3" x1="119.23" y1="161.17" x2="37.5" y2="84.14" xlink:href="#linear-gradient"/>
    <linearGradient id="linear-gradient-4" x1="102.1" y1="179.35" x2="20.37" y2="102.32" xlink:href="#linear-gradient"/>
    <linearGradient id="linear-gradient-5" x1="90.92" y1="153.17" x2="238.84" y2="153.17" xlink:href="#linear-gradient"/>
    <linearGradient id="linear-gradient-6" x1="90.4" y1="136.12" x2="185.59" y2="119.52" gradientUnits="userSpaceOnUse">
      <stop offset="0" stop-color="#ff6200"/>
      <stop offset=".64" stop-color="#ff9302"/>
      <stop offset="1" stop-color="#ffaa03"/>
    </linearGradient>
    <radialGradient id="radial-gradient" cx="-339.21" cy="6015.24" fx="-339.21" fy="6015.24" r="90.7" gradientTransform="translate(600.24 -1008.5) scale(1.35 .21)" gradientUnits="userSpaceOnUse">
      <stop offset=".12" stop-color="#333"/>
      <stop offset=".15" stop-color="#434343"/>
      <stop offset=".27" stop-color="#757575"/>
      <stop offset=".39" stop-color="#9f9f9f"/>
      <stop offset=".5" stop-color="#c2c2c2"/>
      <stop offset=".62" stop-color="#dcdcdc"/>
      <stop offset=".74" stop-color="#efefef"/>
      <stop offset=".87" stop-color="#fbfbfb"/>
      <stop offset="1" stop-color="#fff"/>
    </radialGradient>
  </defs>
  <g style="fill: none; isolation: isolate;">
    <g id="Calque_2" data-name="Calque 2">
      <g id="Layer_1" data-name="Layer 1">
        <rect width="288" height="288" style="fill: #e5e788;"/>
        <g>
          <g>
            <path d="m86.44,138.75c-.12,2.91-2.56,5.57-5.45,5.94-2.89.37-5.13-1.69-5.01-4.6.12-2.91,2.56-5.57,5.45-5.94,2.89-.37,5.13,1.69,5.01,4.6Z" style="fill: url(#linear-gradient);"/>
            <path d="m78.7,83.48c-29.43,5.03-53.38,33.07-53.38,62.5s23.94,49.28,53.38,44.25c1.24-.21,2.46-.48,3.68-.78v-8.71c-1.21.32-2.44.61-3.68.83-24.66,4.21-44.72-12.42-44.72-37.08s20.06-48.15,44.72-52.36c24.66-4.21,44.72,12.42,44.72,37.08,0,.07-.01.15-.01.22l8.66-1.48c0-.07,0-.15,0-.22,0-29.43-23.94-49.28-53.38-44.25Z" style="fill: url(#linear-gradient-2);"/>
            <path d="m81.11,141.85c-1.29.17-2.32-.72-2.31-2.03l.12-28.03c0-1.34,1.09-2.6,2.43-2.82,1.38-.23,2.41.68,2.41,2.02l-.12,28.04c0,1.34-1.09,2.6-2.43,2.82-.03,0-.06,0-.09.01Z" style="fill: url(#linear-gradient-3);"/>
            <path d="m47.52,147.95c-1.3.17-2.33-.74-2.31-2.05.02-1.34,1.12-2.59,2.45-2.8l31.84-4.98c1.42-.22,2.4.71,2.38,2.04-.02,1.34-1.12,2.59-2.45,2.8l-31.84,4.98s-.05,0-.07.01Z" style="fill: url(#linear-gradient-4);"/>
          </g>
          <polygon points="225.63 118.78 90.92 141.8 90.92 187.57 225.63 164.54 238.84 139.4 225.63 118.78" style="fill: url(#linear-gradient-5);"/>
          <polygon points="179.9 105.56 90.92 120.76 90.92 150.99 179.9 135.78 188.62 119.18 179.9 105.56" style="fill: url(#linear-gradient-6);"/>
          <g>
            <path d="m111.68,129.27c0-1.24-.52-1.78-1.56-1.6-.59.1-1.02.39-1.29.86-.27.47-.42,1.16-.45,2.06l-3.67.63c.09-1.97.66-3.54,1.72-4.71,1.06-1.17,2.39-1.89,4-2.16,1.69-.29,2.96-.07,3.82.67.86.73,1.29,1.81,1.29,3.22,0,1.56-.58,3.19-1.74,4.88-1.16,1.69-2.54,3.19-4.16,4.5l6.14-1.05v3.14l-11.09,1.9v-2.91c4.66-4.24,7-7.38,7-9.41Z" style="fill: #fff;"/>
            <path d="m116.7,136.76v-3.25l7.11-11.29,4.05-.69v9.94l1.87-.32v3.39l-1.87.32v2.96l-3.81.65v-2.96l-7.35,1.26Zm7.66-10.14l-3.83,6.09,3.83-.65v-5.44Z" style="fill: #fff;"/>
            <path d="m146.03,123.33c.83.83,1.24,2.09,1.24,3.79v7.37l-3.76.64v-6.92c0-.85-.22-1.48-.65-1.88-.43-.4-1.01-.54-1.73-.42-.76.13-1.37.48-1.82,1.06-.45.58-.67,1.33-.67,2.25v6.74l-3.76.64v-16.84l3.76-.64v6.46c.35-.82.88-1.51,1.57-2.07.7-.56,1.51-.92,2.45-1.08,1.41-.24,2.53.05,3.35.88Z" style="fill: #fff;"/>
            <path d="m154.68,121.08c.74-.58,1.54-.95,2.41-1.09v4.16l-1.08.18c-1,.17-1.77.52-2.32,1.06-.55.53-.83,1.32-.83,2.37v5.78l-3.76.64v-12.7l3.76-.64v2.39c.47-.85,1.07-1.57,1.81-2.15Z" style="fill: #fff;"/>
          </g>
          <g>
            <path d="m118.9,169.74c-.53.99-1.31,1.84-2.33,2.55-1.03.71-2.27,1.19-3.74,1.44-2.2.38-4.02.13-5.45-.74-1.43-.87-2.21-2.29-2.33-4.26l5.06-.86c.07.75.34,1.31.79,1.68.45.36,1.03.48,1.74.36.61-.1,1.09-.36,1.45-.76.35-.4.53-.9.53-1.47,0-.52-.16-.92-.49-1.21-.32-.29-.73-.5-1.21-.64-.48-.14-1.15-.29-2-.45-1.24-.23-2.26-.48-3.04-.76-.79-.28-1.46-.77-2.03-1.49-.57-.72-.85-1.73-.85-3.03,0-1.21.3-2.3.89-3.28.59-.98,1.41-1.8,2.46-2.45,1.05-.65,2.25-1.09,3.6-1.32,2.19-.37,3.92-.13,5.21.72,1.29.85,2.01,2.2,2.18,4.05l-5.14.88c-.09-.65-.33-1.15-.71-1.47-.38-.33-.89-.44-1.54-.33-.56.1-1,.33-1.35.69-.34.37-.51.85-.51,1.44,0,.48.15.86.46,1.14.31.28.69.49,1.15.62.46.13,1.13.29,2,.46,1.26.23,2.29.49,3.09.78.8.3,1.48.81,2.06,1.53.57.73.86,1.75.86,3.07,0,1.07-.26,2.1-.79,3.1Z" style="fill: #fff;"/>
            <path d="m127.64,154.6v4.25l6.64-1.14v3.71l-6.64,1.14v4.51l7.47-1.28v3.94l-12.23,2.09v-20.32l12.23-2.09v3.91l-7.47,1.28Z" style="fill: #fff;"/>
            <path d="m148.45,167.45l-4.25-6.95-1.08.19v7.67l-4.75.81v-20.32l8.11-1.39c1.56-.27,2.87-.21,3.95.16,1.07.37,1.88,1,2.42,1.87.54.88.81,1.94.81,3.18,0,1.48-.39,2.8-1.18,3.97-.79,1.17-1.93,2.07-3.43,2.71l4.67,7.19-5.25.9Zm-5.33-10.12l2.94-.5c.95-.16,1.64-.5,2.08-1,.45-.51.67-1.18.67-2.02s-.23-1.4-.68-1.78c-.45-.38-1.14-.49-2.07-.34l-2.94.5v5.14Z" style="fill: #fff;"/>
            <path d="m160.26,145.11l4.81,14.47,4.81-16.11,5.09-.87-6.84,21.49-6.14,1.05-6.81-19.16,5.08-.87Z" style="fill: #fff;"/>
            <path d="m182.1,141.38v20.32l-4.75.81v-20.32l4.75-.81Z" style="fill: #fff;"/>
            <path d="m201.12,139.97c1.64,1.08,2.7,2.74,3.18,4.97l-5.03.86c-.37-.88-.94-1.52-1.71-1.92-.77-.4-1.68-.52-2.74-.34-1.39.24-2.51.96-3.36,2.16-.85,1.2-1.28,2.68-1.28,4.44s.43,3.09,1.28,3.99c.85.9,1.97,1.23,3.36.99,1.06-.18,1.97-.6,2.74-1.27.77-.67,1.34-1.49,1.71-2.48l5.03-.86c-.48,2.38-1.54,4.4-3.18,6.05-1.64,1.65-3.71,2.69-6.21,3.12-1.91.33-3.58.18-5.03-.45-1.44-.62-2.56-1.66-3.35-3.09-.79-1.44-1.18-3.16-1.18-5.17s.39-3.87,1.18-5.58c.79-1.71,1.9-3.12,3.35-4.24,1.45-1.12,3.12-1.84,5.03-2.17,2.5-.43,4.57-.1,6.21.98Z" style="fill: #fff;"/>
            <path d="m212.27,140.13v4.25l6.64-1.14v3.71l-6.64,1.13v4.51l7.47-1.28v3.94l-12.23,2.09v-20.32l12.23-2.09v3.91l-7.47,1.28Z" style="fill: #fff;"/>
          </g>
          <g>
            <path d="m107.61,198.21v2.45l3.82-.65v2.13l-3.82.65v2.6l4.3-.73v2.26l-7.03,1.2v-11.69l7.03-1.2v2.25l-4.3.73Z" style="fill: #004e8e;"/>
            <path d="m118.13,194.17l2.77,8.32,2.76-9.27,2.92-.5-3.93,12.36-3.53.6-3.92-11.02,2.92-.5Z" style="fill: #004e8e;"/>
            <path d="m132.93,193.89v2.45l3.82-.65v2.13l-3.82.65v2.6l4.3-.73v2.26l-7.03,1.2v-11.69l7.03-1.2v2.25l-4.3.73Z" style="fill: #004e8e;"/>
            <path d="m147.14,200.9l-2.45-4-.62.11v4.41l-2.73.47v-11.69l4.67-.8c.9-.15,1.65-.12,2.27.09.62.21,1.08.57,1.39,1.08.31.5.46,1.11.46,1.83,0,.85-.23,1.61-.68,2.28-.45.67-1.11,1.19-1.97,1.56l2.69,4.14-3.02.52Zm-3.07-5.82l1.69-.29c.54-.09.94-.29,1.2-.58.26-.29.38-.68.38-1.16s-.13-.8-.39-1.02c-.26-.22-.66-.28-1.19-.19l-1.69.29v2.96Z" style="fill: #004e8e;"/>
            <path d="m163.82,186.36l-3.92,8.47v3.88l-2.75.47v-3.88l-3.92-7.13,3.13-.54,2.17,4.39,2.17-5.13,3.1-.53Z" style="fill: #004e8e;"/>
            <path d="m176.89,192.99c-.47.97-1.16,1.78-2.05,2.42-.89.65-1.94,1.07-3.14,1.28l-4.27.73v-11.69l4.27-.73c1.21-.21,2.26-.14,3.15.19.88.33,1.56.9,2.04,1.7.47.8.71,1.77.71,2.92s-.24,2.2-.71,3.17Zm-2.94-.08c.59-.69.89-1.56.89-2.62s-.3-1.83-.89-2.31c-.59-.48-1.42-.63-2.48-.45l-1.29.22v6.68l1.29-.22c1.07-.18,1.89-.62,2.48-1.3Z" style="fill: #004e8e;"/>
            <path d="m188.71,191.66l-4.24.72-.7,2.25-2.88.49,4.14-12.31,3.15-.54,4.14,10.9-2.91.5-.7-2.01Zm-.7-2.03l-1.41-4.06-1.42,4.54,2.83-.48Z" style="fill: #004e8e;"/>
            <path d="m205.7,179.2l-3.92,8.47v3.88l-2.75.47v-3.88l-3.92-7.13,3.13-.54,2.17,4.39,2.17-5.13,3.1-.53Z" style="fill: #004e8e;"/>
          </g>
          <rect x="135.98" y="173.68" width="133.43" height="1.66" transform="translate(-26.68 36.93) rotate(-9.77)" style="fill: #004b89;"/>
          <rect x="144.26" y="96.14" width="73.87" height="1.66" transform="translate(-13.75 31.92) rotate(-9.7)" style="fill: #ff6200;"/>
          <rect x="31.31" y="201.59" width="38.6" height="1.66" transform="translate(-33.39 11.42) rotate(-9.7)" style="fill: #ff6200;"/>
          <rect x="165.27" y="79.85" width="90.54" height="1.66" transform="translate(-10.58 36.63) rotate(-9.7)" style="fill: #004b89;"/>
        </g>
        <ellipse cx="142.3" cy="232.44" rx="122.46" ry="18.71" style="fill: url(#radial-gradient); mix-blend-mode: multiply; opacity: .1;"/>
      </g>
    </g>
  </g>
</svg>