<?xml version="1.0" encoding="utf-8"?>
<!-- Generator: Adobe Illustrator 27.7.0, SVG Export Plug-In . SVG Version: 6.00 Build 0)  -->
<svg version="1.1" id="Calque_1" xmlns="http://www.w3.org/2000/svg" xmlns:xlink="http://www.w3.org/1999/xlink" x="0px" y="0px"
	 viewBox="0 0 288 288" style="enable-background:new 0 0 288 288;" xml:space="preserve">
<style type="text/css">
	.st0{fill:#E5E788;}
	.st1{fill:url(#SVGID_1_);}
	.st2{fill:url(#SVGID_00000106845996755667470350000009586579062627608985_);}
	.st3{fill:url(#SVGID_00000004510540675458935750000007954163211449171898_);}
	.st4{fill:url(#SVGID_00000031885592310956442860000013186579242629604754_);}
	.st5{fill:url(#SVGID_00000105429241136558964400000005680465407520713623_);}
	.st6{fill:url(#SVGID_00000003818194356218953930000017142829059863322558_);}
	.st7{fill:#FFFFFF;}
	.st8{fill:#004E8E;}
	.st9{fill:#004B89;}
	.st10{fill:#FF6200;}
	.st11{opacity:0.1;fill:url(#SVGID_00000181772181056531849000000004587174586721343906_);enable-background:new    ;}
</style>
<g>
	<g id="Calque_2_00000183964245121016240510000015397546713523198861_">
		<g id="Layer_1">
			<rect x="-48" y="-48" class="st0" width="384" height="384"/>
			<g>
				<g>
					
						<linearGradient id="SVGID_1_" gradientUnits="userSpaceOnUse" x1="101.6014" y1="113.1615" x2="-7.3719" y2="215.8682" gradientTransform="matrix(1 0 0 -1 0 290)">
						<stop  offset="0" style="stop-color:#FF6200"/>
						<stop  offset="0.14" style="stop-color:#002B4F"/>
						<stop  offset="0.21" style="stop-color:#002F57"/>
						<stop  offset="0.74" style="stop-color:#004F91"/>
						<stop  offset="1" style="stop-color:#005CA8"/>
					</linearGradient>
					<path class="st1" d="M67.3,137c-0.2,3.9-3.4,7.4-7.3,7.9c-3.9,0.5-6.8-2.3-6.7-6.1c0.2-3.9,3.4-7.4,7.3-7.9
						C64.4,130.4,67.4,133.1,67.3,137z"/>
					
						<linearGradient id="SVGID_00000111193849846239534720000009294428381943975845_" gradientUnits="userSpaceOnUse" x1="101.7283" y1="113.3014" x2="-7.245" y2="216.008" gradientTransform="matrix(1 0 0 -1 0 290)">
						<stop  offset="0" style="stop-color:#FF6200"/>
						<stop  offset="0.14" style="stop-color:#002B4F"/>
						<stop  offset="0.21" style="stop-color:#002F57"/>
						<stop  offset="0.74" style="stop-color:#004F91"/>
						<stop  offset="1" style="stop-color:#005CA8"/>
					</linearGradient>
					<path style="fill:url(#SVGID_00000111193849846239534720000009294428381943975845_);" d="M56.9,63.3
						c-39.2,6.7-71.2,44.1-71.2,83.3s31.9,65.7,71.2,59c1.7-0.3,3.3-0.6,4.9-1V193c-1.6,0.4-3.3,0.8-4.9,1.1
						c-32.9,5.6-59.6-16.6-59.6-49.4s26.7-64.2,59.6-69.8c32.9-5.6,59.6,16.6,59.6,49.4c0,0.1,0,0.2,0,0.3l11.5-2c0-0.1,0-0.2,0-0.3
						C128.1,83.1,96.2,56.6,56.9,63.3L56.9,63.3z"/>
					
						<linearGradient id="SVGID_00000005231303904910632930000002595048794491779456_" gradientUnits="userSpaceOnUse" x1="110.9753" y1="123.1088" x2="2.002" y2="225.8155" gradientTransform="matrix(1 0 0 -1 0 290)">
						<stop  offset="0" style="stop-color:#FF6200"/>
						<stop  offset="0.14" style="stop-color:#002B4F"/>
						<stop  offset="0.21" style="stop-color:#002F57"/>
						<stop  offset="0.74" style="stop-color:#004F91"/>
						<stop  offset="1" style="stop-color:#005CA8"/>
					</linearGradient>
					<path style="fill:url(#SVGID_00000005231303904910632930000002595048794491779456_);" d="M60.1,141.1c-1.7,0.2-3.1-1-3.1-2.7
						l0.2-37.4c0-1.8,1.5-3.5,3.2-3.8c1.8-0.3,3.2,0.9,3.2,2.7l-0.2,37.4c0,1.8-1.5,3.5-3.2,3.8C60.2,141.1,60.2,141.1,60.1,141.1
						L60.1,141.1z"/>
					
						<linearGradient id="SVGID_00000096745954116246078910000012727510274009496996_" gradientUnits="userSpaceOnUse" x1="88.1317" y1="98.8649" x2="-20.8416" y2="201.5716" gradientTransform="matrix(1 0 0 -1 0 290)">
						<stop  offset="0" style="stop-color:#FF6200"/>
						<stop  offset="0.14" style="stop-color:#002B4F"/>
						<stop  offset="0.21" style="stop-color:#002F57"/>
						<stop  offset="0.74" style="stop-color:#004F91"/>
						<stop  offset="1" style="stop-color:#005CA8"/>
					</linearGradient>
					<path style="fill:url(#SVGID_00000096745954116246078910000012727510274009496996_);" d="M15.4,149.3c-1.7,0.2-3.1-1-3.1-2.7
						c0-1.8,1.5-3.5,3.3-3.7l42.5-6.6c1.9-0.3,3.2,0.9,3.2,2.7c0,1.8-1.5,3.5-3.3,3.7L15.4,149.3C15.5,149.3,15.4,149.3,15.4,149.3
						L15.4,149.3z"/>
				</g>
				
					<linearGradient id="SVGID_00000163767853009264261560000007267122610645541004_" gradientUnits="userSpaceOnUse" x1="73.2267" y1="133.7667" x2="270.4533" y2="133.7667" gradientTransform="matrix(1 0 0 -1 0 290)">
					<stop  offset="0" style="stop-color:#FF6200"/>
					<stop  offset="0.14" style="stop-color:#002B4F"/>
					<stop  offset="0.21" style="stop-color:#002F57"/>
					<stop  offset="0.74" style="stop-color:#004F91"/>
					<stop  offset="1" style="stop-color:#005CA8"/>
				</linearGradient>
				<polygon style="fill:url(#SVGID_00000163767853009264261560000007267122610645541004_);" points="252.8,110.4 73.2,141.1 
					73.2,202.1 252.8,171.4 270.5,137.9 				"/>
				
					<linearGradient id="SVGID_00000052792164662411343690000000888580217119095214_" gradientUnits="userSpaceOnUse" x1="72.5332" y1="156.5077" x2="199.4531" y2="178.641" gradientTransform="matrix(1 0 0 -1 0 290)">
					<stop  offset="0" style="stop-color:#FF6200"/>
					<stop  offset="0.64" style="stop-color:#FF9302"/>
					<stop  offset="1" style="stop-color:#FFAA03"/>
				</linearGradient>
				<polygon style="fill:url(#SVGID_00000052792164662411343690000000888580217119095214_);" points="191.9,92.7 73.2,113 
					73.2,153.3 191.9,133 203.5,110.9 				"/>
				<g>
					<path class="st7" d="M100.9,124.4c0-1.7-0.7-2.4-2.1-2.1c-0.8,0.1-1.4,0.5-1.7,1.1c-0.4,0.6-0.6,1.5-0.6,2.7l-4.9,0.8
						c0.1-2.6,0.9-4.7,2.3-6.3s3.2-2.5,5.3-2.9c2.3-0.4,3.9-0.1,5.1,0.9c1.1,1,1.7,2.4,1.7,4.3c0,2.1-0.8,4.3-2.3,6.5
						c-1.5,2.3-3.4,4.3-5.5,6l8.2-1.4v4.2l-14.8,2.5v-3.9C97.8,131.3,100.9,127.1,100.9,124.4L100.9,124.4z"/>
					<path class="st7" d="M107.6,134.3V130l9.5-15.1l5.4-0.9v13.3l2.5-0.4v4.5l-2.5,0.4v3.9l-5.1,0.9v-3.9L107.6,134.3L107.6,134.3z
						 M117.8,120.8l-5.1,8.1l5.1-0.9V120.8z"/>
					<path class="st7" d="M146.7,116.4c1.1,1.1,1.7,2.8,1.7,5.1v9.8l-5,0.9v-9.2c0-1.1-0.3-2-0.9-2.5c-0.6-0.5-1.3-0.7-2.3-0.6
						c-1,0.2-1.8,0.6-2.4,1.4c-0.6,0.8-0.9,1.8-0.9,3v9l-5,0.9v-22.5l5-0.9v8.6c0.5-1.1,1.2-2,2.1-2.8c0.9-0.7,2-1.2,3.3-1.4
						C144.1,114.9,145.6,115.3,146.7,116.4L146.7,116.4z"/>
					<path class="st7" d="M158.2,113.4c1-0.8,2.1-1.3,3.2-1.5v5.5l-1.4,0.2c-1.3,0.2-2.4,0.7-3.1,1.4c-0.7,0.7-1.1,1.8-1.1,3.2v7.7
						l-5,0.9V114l5-0.9v3.2C156.4,115.2,157.2,114.2,158.2,113.4L158.2,113.4z"/>
				</g>
				<g>
					<path class="st7" d="M110.5,178.3c-0.7,1.3-1.7,2.5-3.1,3.4c-1.4,0.9-3,1.6-5,1.9c-2.9,0.5-5.4,0.2-7.3-1
						c-1.9-1.2-2.9-3.1-3.1-5.7l6.7-1.1c0.1,1,0.5,1.7,1.1,2.2c0.6,0.5,1.4,0.6,2.3,0.5c0.8-0.1,1.5-0.5,1.9-1
						c0.5-0.5,0.7-1.2,0.7-2c0-0.7-0.2-1.2-0.7-1.6c-0.4-0.4-1-0.7-1.6-0.9c-0.6-0.2-1.5-0.4-2.7-0.6c-1.7-0.3-3-0.6-4.1-1
						c-1.1-0.4-1.9-1-2.7-2c-0.8-1-1.1-2.3-1.1-4c0-1.6,0.4-3.1,1.2-4.4c0.8-1.3,1.9-2.4,3.3-3.3c1.4-0.9,3-1.5,4.8-1.8
						c2.9-0.5,5.2-0.2,6.9,1s2.7,2.9,2.9,5.4l-6.9,1.2c-0.1-0.9-0.4-1.5-0.9-2c-0.5-0.4-1.2-0.6-2.1-0.4c-0.7,0.1-1.3,0.4-1.8,0.9
						c-0.5,0.5-0.7,1.1-0.7,1.9c0,0.6,0.2,1.1,0.6,1.5c0.4,0.4,0.9,0.7,1.5,0.8c0.6,0.2,1.5,0.4,2.7,0.6c1.7,0.3,3.1,0.7,4.1,1
						c1.1,0.4,2,1.1,2.7,2c0.8,1,1.1,2.3,1.1,4.1C111.6,175.6,111.3,177,110.5,178.3L110.5,178.3z"/>
					<path class="st7" d="M122.2,158.1v5.7l8.9-1.5v4.9l-8.9,1.5v6l10-1.7v5.3l-16.3,2.8V154l16.3-2.8v5.2L122.2,158.1z"/>
					<path class="st7" d="M149.9,175.3l-5.7-9.3l-1.4,0.3v10.2l-6.3,1.1v-27.1l10.8-1.9c2.1-0.4,3.8-0.3,5.3,0.2
						c1.4,0.5,2.5,1.3,3.2,2.5c0.7,1.2,1.1,2.6,1.1,4.2c0,2-0.5,3.7-1.6,5.3c-1.1,1.6-2.6,2.8-4.6,3.6l6.2,9.6L149.9,175.3
						L149.9,175.3z M142.8,161.8l3.9-0.7c1.3-0.2,2.2-0.7,2.8-1.3c0.6-0.7,0.9-1.6,0.9-2.7c0-1.1-0.3-1.9-0.9-2.4
						c-0.6-0.5-1.5-0.7-2.8-0.5l-3.9,0.7V161.8z"/>
					<path class="st7" d="M165.7,145.5l6.4,19.3l6.4-21.5l6.8-1.2l-9.1,28.7l-8.2,1.4l-9.1-25.5L165.7,145.5L165.7,145.5z"/>
					<path class="st7" d="M194.8,140.5v27.1l-6.3,1.1v-27.1L194.8,140.5z"/>
					<path class="st7" d="M220.2,138.6c2.2,1.4,3.6,3.7,4.2,6.6l-6.7,1.1c-0.5-1.2-1.3-2-2.3-2.6s-2.2-0.7-3.7-0.5
						c-1.9,0.3-3.3,1.3-4.5,2.9c-1.1,1.6-1.7,3.6-1.7,5.9s0.6,4.1,1.7,5.3c1.1,1.2,2.6,1.6,4.5,1.3c1.4-0.2,2.6-0.8,3.7-1.7
						s1.8-2,2.3-3.3l6.7-1.1c-0.6,3.2-2.1,5.9-4.2,8.1c-2.2,2.2-4.9,3.6-8.3,4.2c-2.5,0.4-4.8,0.2-6.7-0.6c-1.9-0.8-3.4-2.2-4.5-4.1
						c-1.1-1.9-1.6-4.2-1.6-6.9s0.5-5.2,1.6-7.4c1.1-2.3,2.5-4.2,4.5-5.7c1.9-1.5,4.2-2.5,6.7-2.9
						C215.2,136.7,218,137.2,220.2,138.6L220.2,138.6z"/>
					<path class="st7" d="M235,138.8v5.7l8.9-1.5v4.9l-8.9,1.5v6l10-1.7v5.3l-16.3,2.8v-27.1l16.3-2.8v5.2L235,138.8L235,138.8z"/>
				</g>
				<g>
					<path class="st8" d="M95.5,216.3v3.3l5.1-0.9v2.8l-5.1,0.9v3.5l5.7-1v3l-9.4,1.6v-15.6l9.4-1.6v3L95.5,216.3z"/>
					<path class="st8" d="M109.5,210.9l3.7,11.1l3.7-12.4l3.9-0.7l-5.2,16.5l-4.7,0.8l-5.2-14.7L109.5,210.9L109.5,210.9z"/>
					<path class="st8" d="M129.2,210.5v3.3l5.1-0.9v2.8l-5.1,0.9v3.5l5.7-1v3l-9.4,1.6v-15.6l9.4-1.6v3L129.2,210.5z"/>
					<path class="st8" d="M148.2,219.9l-3.3-5.3l-0.8,0.1v5.9l-3.6,0.6v-15.6l6.2-1.1c1.2-0.2,2.2-0.2,3,0.1
						c0.8,0.3,1.4,0.8,1.9,1.4c0.4,0.7,0.6,1.5,0.6,2.4c0,1.1-0.3,2.1-0.9,3c-0.6,0.9-1.5,1.6-2.6,2.1l3.6,5.5L148.2,219.9
						L148.2,219.9z M144.1,212.1l2.3-0.4c0.7-0.1,1.3-0.4,1.6-0.8c0.3-0.4,0.5-0.9,0.5-1.5s-0.2-1.1-0.5-1.4
						c-0.3-0.3-0.9-0.4-1.6-0.3l-2.3,0.4V212.1L144.1,212.1z"/>
					<path class="st8" d="M170.4,200.5l-5.2,11.3v5.2l-3.7,0.6v-5.2l-5.2-9.5l4.2-0.7l2.9,5.9l2.9-6.8L170.4,200.5L170.4,200.5z"/>
					<path class="st8" d="M187.9,209.3c-0.6,1.3-1.5,2.4-2.7,3.2c-1.2,0.9-2.6,1.4-4.2,1.7l-5.7,1v-15.6l5.7-1
						c1.6-0.3,3-0.2,4.2,0.3c1.2,0.4,2.1,1.2,2.7,2.3c0.6,1.1,0.9,2.4,0.9,3.9S188.5,208,187.9,209.3L187.9,209.3z M183.9,209.2
						c0.8-0.9,1.2-2.1,1.2-3.5s-0.4-2.4-1.2-3.1c-0.8-0.6-1.9-0.8-3.3-0.6l-1.7,0.3v8.9l1.7-0.3
						C182.1,210.7,183.1,210.1,183.9,209.2z"/>
					<path class="st8" d="M203.6,207.5l-5.7,1l-0.9,3l-3.8,0.7l5.5-16.4l4.2-0.7l5.5,14.5l-3.9,0.7L203.6,207.5L203.6,207.5z
						 M202.7,204.8l-1.9-5.4l-1.9,6.1L202.7,204.8z"/>
					<path class="st8" d="M226.3,190.9l-5.2,11.3v5.2l-3.7,0.6v-5.2l-5.2-9.5l4.2-0.7l2.9,5.9l2.9-6.8L226.3,190.9L226.3,190.9z"/>
				</g>
				
					<rect x="133.3" y="183.6" transform="matrix(0.9855 -0.1697 0.1697 0.9855 -28.1164 40.3931)" class="st9" width="177.9" height="2.2"/>
				
					<rect x="144.3" y="80.2" transform="matrix(0.9857 -0.1685 0.1685 0.9857 -10.9303 33.7803)" class="st10" width="98.5" height="2.2"/>
				
					<rect x="-6.3" y="220.8" transform="matrix(0.9857 -0.1685 0.1685 0.9857 -37.1081 6.4527)" class="st10" width="51.5" height="2.2"/>
				
					<rect x="172.4" y="58.5" transform="matrix(0.9857 -0.1685 0.1685 0.9857 -6.7109 40.0634)" class="st9" width="120.7" height="2.2"/>
			</g>
			
				<radialGradient id="SVGID_00000121242552325476896830000000241310209490883983_" cx="-550.9308" cy="-7386.9077" r="120.9345" gradientTransform="matrix(1.35 0 0 -0.21 885.49 -1259.65)" gradientUnits="userSpaceOnUse">
				<stop  offset="0.12" style="stop-color:#333333"/>
				<stop  offset="0.15" style="stop-color:#434343"/>
				<stop  offset="0.27" style="stop-color:#757575"/>
				<stop  offset="0.39" style="stop-color:#9F9F9F"/>
				<stop  offset="0.5" style="stop-color:#C2C2C2"/>
				<stop  offset="0.62" style="stop-color:#DCDCDC"/>
				<stop  offset="0.74" style="stop-color:#EFEFEF"/>
				<stop  offset="0.87" style="stop-color:#FBFBFB"/>
				<stop  offset="1" style="stop-color:#FFFFFF"/>
			</radialGradient>
			
				<ellipse style="opacity:0.1;fill:url(#SVGID_00000121242552325476896830000000241310209490883983_);enable-background:new    ;" cx="141.7" cy="261.9" rx="163.3" ry="24.9"/>
		</g>
	</g>
</g>
</svg>
