<?xml version="1.0" encoding="utf-8"?>
<!-- Generator: Adobe Illustrator 27.7.0, SVG Export Plug-In . SVG Version: 6.00 Build 0)  -->
<svg version="1.1" id="Calque_1" xmlns="http://www.w3.org/2000/svg" xmlns:xlink="http://www.w3.org/1999/xlink" x="0px" y="0px"
	 viewBox="0 0 480 360" style="enable-background:new 0 0 480 360;" xml:space="preserve">
<style type="text/css">
	.st0{opacity:0.2;fill:url(#SVGID_1_);enable-background:new    ;}
	.st1{opacity:5.000000e-02;fill:#FF4842;enable-background:new    ;}
	.st2{fill:#FF4842;}
	.st3{fill:#004B50;}
	.st4{fill:#FFFFFF;}
	.st5{fill:#FFC107;}
	.st6{opacity:0.5;fill:#FFC107;enable-background:new    ;}
	.st7{opacity:0.3;fill:#FFC107;enable-background:new    ;}
	.st8{opacity:0.5;fill:#FF4842;enable-background:new    ;}
	.st9{opacity:0.3;fill:#FF4842;enable-background:new    ;}
	.st10{fill:#1890FF;}
	.st11{opacity:0.5;fill:#1890FF;enable-background:new    ;}
	.st12{opacity:0.3;fill:#1890FF;enable-background:new    ;}
	.st13{fill:#00A76F;}
	.st14{opacity:0.5;fill:#00A76F;enable-background:new    ;}
	.st15{opacity:0.3;fill:#00A76F;enable-background:new    ;}
	.st16{fill:#F4F6F8;}
	.st17{opacity:0.1;enable-background:new    ;}
	.st18{opacity:0.1;fill:#FF4842;enable-background:new    ;}
	.st19{opacity:0.1;fill:#00A76F;enable-background:new    ;}
	.st20{opacity:0.2;fill:#00A76F;enable-background:new    ;}
	.st21{fill:#DFE3E8;}
	.st22{opacity:0.243;fill:#007867;enable-background:new    ;}
	.st23{opacity:0.32;fill:url(#SVGID_00000142881567503829648320000011664211218037665209_);enable-background:new    ;}
	.st24{stroke:#004B50;stroke-width:0.5;stroke-linecap:round;}
	.st25{fill:#007867;}
	.st26{opacity:0.72;fill:#00A76F;enable-background:new    ;}
</style>
<linearGradient id="SVGID_1_" gradientUnits="userSpaceOnUse" x1="-717.2587" y1="719.2336" x2="-716.6788" y2="719.7849" gradientTransform="matrix(480 0 0 -360.0004 344401 259201.2656)">
	<stop  offset="0" style="stop-color:#00A76F"/>
	<stop  offset="1" style="stop-color:#00A76F;stop-opacity:0"/>
</linearGradient>
<path class="st0" d="M0,198.8c0,41.5,14.9,79.2,39.5,107.8c28.2,32.8,69.1,53.4,114.7,53.4c19.4,0,38.6-3.7,56.5-11
	c9.1-3.7,19.2-3.3,27.9,1.1c10.5,5.3,22.2,8,34,8c5,0,9.9-0.5,14.7-1.4c13.6-2.7,25.9-9,36.1-17.9c6.4-5.6,14.5-8.5,22.9-8.4h0.1
	c27.6,0,53.2-8.7,74.5-23.7c19-13.4,34.6-31.7,44.9-53.2c9-18.8,14.1-40,14.1-62.4c0-76.9-59.8-139.3-133.5-139.3
	c-7.5,0-14.9,0.7-22.1,1.9C305.4,21.4,271.4,0,232.5,0c-15.9,0-31.6,3.6-45.9,10.7c-13.2,6.5-25,15.7-34.6,26.9
	C119.3,38.1,89,49.3,64.3,67.9C25.4,97.2,0,144.9,0,198.8L0,198.8z"/>
<path class="st1" d="M293,206.2c-2.2,2.7-4.7,2.6-6.1,2.3l0.1-1.4c0,0,6-2.7,5.8-2.2C292.7,205.1,292.8,205.6,293,206.2L293,206.2z
	 M309.4,209.2c-3.8,2.2-6.1-0.4-6.6-1.1c0.3-0.8,0.8-2.2,0.7-2.6c-0.1-0.6,5.8,2.2,5.8,2.2L309.4,209.2z M305.3,187.2
	c0,0,3.6-2.1,4.4-1.2C310.5,187,305.3,187.2,305.3,187.2z M307.5,188.4c0,0-0.6,0.3,0.7,0.7C309.5,189.4,307.5,188.4,307.5,188.4z
	 M285.5,182.6c-0.1,0,3,2.1,5.9,0.4C291.4,183,286.2,182.4,285.5,182.6z M291.2,186.6c0,0-0.9,1.7-2.6,1.9
	C286.9,188.8,291.2,186.6,291.2,186.6z M302.8,190.3c0,0,4.1,6.6,3.3,8.1C305.3,199.9,302.8,190.3,302.8,190.3z M294.6,216.4
	c0,0.4,0,0.7,0,1c-0.1,1.3-3.4,0.8-3.4,0.8c-3,0.4-4.1-1-4.4-2.4c-0.1-0.4-0.2-0.9-0.2-1.4c-0.2-14.9,11.7-27.2,26.6-27.4
	c14.9-0.2,27.2,11.7,27.4,26.6v-0.3c0.6-0.2,1.3-0.1,1.9,0.4c1.3,1.1,3.1,0.3,3.1,0.3s1.3,0.1,1.8,0.5c0.3,0.2,0.7-0.3,1.1-0.9
	c0,0.4,0.1,1,0.1,1.7c0,0.4,0,0.7,0,1L294.6,216.4z"/>
<path class="st2" d="M289.4,216.3c0,0-0.9,0.9-2.6-0.5c-0.1-0.4-0.2-0.9-0.2-1.4C287.5,215.2,289.1,216.3,289.4,216.3L289.4,216.3z
	 M294.6,216.4c-0.1,0.1-0.3,0.2-0.5,0.1c-0.2,0-0.3-0.1-0.5-0.3c0.3-0.3,0.7-0.6,1-0.9C294.6,215.7,294.6,216.1,294.6,216.4z
	 M301.6,217c0,0.4,0,0.7,0,1c0.1,1.3,3.4,0.8,3.4,0.8c3,0.4,4.1-1,4.4-2.4c0-3.2,2.6-5.7,5.8-5.7c2.3,0,4.3,1.4,5.2,3.5V214
	c-0.6-0.2-1.3,0-1.9,0.4c-1.3,1.1-3.1,0.3-3.1,0.3s-1.3,0.1-1.8,0.5c-0.3,0.2-0.7-0.3-1.1-0.9c0,0.6-0.1,1.1-0.1,1.7
	c0,0.4,0,0.7,0,1L301.6,217z M0,0"/>
<path class="st3" d="M157.6,279.5c-0.7-0.9-1.1-2-0.9-3.1l13.2-108l1.1-9c0.3-2.1,2-3.6,4.1-3.6l38.7-0.3c2.3,0,4.1-1.9,4.1-4.2
	c0,0,0-0.1,0-0.1l0-0.4c-0.1-2.3,1.7-4.2,4-4.3c0,0,0.1,0,0.1,0h40.6c2.3,0,4.1,1.9,4.1,4.1c0,0.2,0,0.4,0,0.5
	c-0.3,2.3,1.3,4.3,3.6,4.6c0.1,0,0.3,0,0.4,0l39,1c2.3,0.1,4.1,1.9,4,4.2c0,0.2,0,0.4-0.1,0.6l-19.5,113.9l-0.4,2.2
	c-0.1,0.6-0.3,1.1-0.6,1.5L157.6,279.5L157.6,279.5z"/>
<path class="st4" d="M275.3,123.7l18.8,13L250,200.4l-18.8-13L275.3,123.7z"/>
<path class="st5" d="M276.7,126.7l13.2,9.2l-9.2,13.2l-13.2-9.2L276.7,126.7z"/>
<path class="st6" d="M266.3,142.7l13.3,9.2l-9.2,13.3l-13.3-9.2L266.3,142.7z"/>
<path class="st7" d="M255.2,158.7l13.3,9.2l-9.2,13.3L246,172L255.2,158.7z"/>
<path class="st4" d="M248.8,119.7l21.9,6.4L249,200.2l-21.9-6.4L248.8,119.7z"/>
<path class="st2" d="M251.6,121.8l15.5,4.5l-4.5,15.5l-15.5-4.5L251.6,121.8z"/>
<path class="st8" d="M246.2,140.5l15.5,4.5l-4.5,15.5l-15.5-4.5L246.2,140.5z"/>
<path class="st9" d="M240.7,159.2l15.5,4.5l-4.5,15.5l-15.5-4.5L240.7,159.2z"/>
<path class="st4" d="M233.2,120.8l22.8,1.8l-6.2,77l-22.8-1.8L233.2,120.8z"/>
<path class="st10" d="M236.5,122.4l16.1,1.3l-1.3,16.1l-16.1-1.3L236.5,122.4z"/>
<path class="st11" d="M234.9,141.8l16.1,1.3l-1.3,16.1l-16.1-1.3L234.9,141.8z"/>
<path class="st12" d="M233.3,161.2l16.1,1.3l-1.3,16.1l-16.1-1.3L233.3,161.2z"/>
<path class="st4" d="M223,123.9l22.8-1l3.5,77.2l-22.8,1L223,123.9z"/>
<path class="st13" d="M226.4,125l16.1-0.7l0.7,16.1l-16.1,0.7L226.4,125z"/>
<path class="st14" d="M227.9,143.9l16.1-0.8l0.8,16.1l-16.1,0.8L227.9,143.9z"/>
<path class="st15" d="M228.2,164l16.1-0.7l0.7,16.1l-16.1,0.7L228.2,164z"/>
<path class="st16" d="M232.7,225.7l-20.3,7.9L182.7,245c-1.1-2.1-2.8-4.9-4.8-8.3c-7-11.6-18.6-29.8-29-45.7
	c-11.7-17.9-21.7-33.1-21.7-33.1l7.3-2.1l59.3-17.2L232.7,225.7L232.7,225.7z"/>
<path class="st17" d="M232.7,225.7l-20.3,7.9c-11.3,2.4-22.9,3.4-34.5,3.2c-7-11.6-18.6-29.8-29-45.7l-14.4-35.2l59.3-17.2
	L232.7,225.7z"/>
<path class="st13" d="M247.8,220.8c0,0-31.5,18.6-78.6,14.4l-37.5-91.5l18-3.1l62.2-10.7l35.3,89L247.8,220.8L247.8,220.8z"/>
<path class="st18" d="M247.1,219.1c-7.4,0.4-16,0.3-24.7-0.7c-9.4-1.1-18.8-3.4-26.8-7.5c-6.7-3.5-12.5-7.2-17.5-11.8
	c-13.1-11.8-21.2-28.6-28.4-58.4l62.2-10.7L247.1,219.1L247.1,219.1z"/>
<path class="st4" d="M270.2,214c0,0-23.2,4.6-46.9,1.7c-9.4-1.1-18.8-3.4-26.8-7.5c-6.7-3.5-12.5-7.2-17.5-11.8
	c-16.2-14.6-24.7-36.9-33.5-81.9c0,0,38.6,9.3,76.8-11.1C222.2,103.4,235.1,183.8,270.2,214z"/>
<path class="st15" d="M165.4,131c0,0,31.4-1.8,40.2-8.5l1.3,4.3c0,0-20.8,9.2-41.5,9.3L165.4,131L165.4,131z M165.4,152.1
	c0,0,30.4-1.7,53.4-12.8l0.8,1.8c0,0-18.2,10.6-54.2,13.4V152.1z M167.9,160.4c0,0,30.4-1.7,53.4-12.8l0.8,1.8
	c0,0-18.2,10.6-54.2,13.4V160.4z M170.3,168.6c0,0,30.4-1.7,53.4-12.8l0.8,1.8c0,0-18.2,10.6-54.2,13.4V168.6L170.3,168.6z
	 M172.7,176.8c0,0,30.4-1.7,53.4-12.8l0.8,1.8c0,0-18.2,10.6-54.2,13.4L172.7,176.8L172.7,176.8z M175.2,185.1
	c0,0,30.4-1.7,53.4-12.8l0.8,1.8c0,0-18.2,10.6-54.2,13.4V185.1z"/>
<path class="st13" d="M389.1,287.3c0,0-12.6-0.8-11.2,8.1c0,0-0.3,1.6,1.1,2.3c0,0,0-0.7,1.3-0.4c0.5,0.1,0.9,0.1,1.4,0.1
	c0.6,0,1.2-0.3,1.7-0.7c0.5-0.4,3.6-1.5,4.9-7.3c0,0,1-1.3,1-1.6l-2.1,0.9c0,0,0.7,1.5,0.2,2.8c0,0-0.1-2.8-0.5-2.7
	c-0.1,0-1.1,0.5-1.1,0.5s1.3,2.7,0.3,4.6c0,0,0.4-3.3-0.7-4.4l-1.5,0.9c0,0,1.5,2.8,0.5,5c0,0,0.3-3.5-0.8-4.8l-1.4,1.1
	c0,0,1.4,2.7,0.5,4.6c0,0-0.1-4-0.8-4.3c0,0-1.2,1-1.4,1.5c0,0,0.9,2,0.4,3c0,0-0.4-2.7-0.7-2.7c0,0-1.2,1.8-1.3,3
	c0,0,0.1-1.8,1-3.2c-0.7,0.1-1.3,0.5-1.8,0.9c0,0,0.2-1.3,2.1-1.4c0,0,1-1.4,1.2-1.4c0,0-1.9-0.2-3.1,0.4c0,0,1-1.2,3.4-0.6l1.3-1.1
	c0,0-2.5-0.3-3.6,0c0,0,1.2-1.1,4-0.3l1.5-0.9c0,0-2.1-0.5-3.4-0.3c0,0,1.3-0.7,3.9,0.1l1-0.5c0,0-1.6-0.3-2-0.4
	c-0.5-0.1-0.5-0.2-0.5-0.2c1-0.2,2-0.1,3,0.3C386.9,288.3,389.1,287.5,389.1,287.3L389.1,287.3z"/>
<ellipse class="st19" cx="380.4" cy="298.5" rx="8.9" ry="1.5"/>
<path class="st13" d="M0,0"/>
<ellipse class="st19" cx="390.1" cy="264.4" rx="5" ry="1"/>
<path class="st13" d="M0,0"/>
<ellipse class="st19" cx="347" cy="270" rx="6.1" ry="1"/>
<path class="st4" d="M279.6,120.5L292.4,81c0.8-2.5,3.5-3.8,6-3l77.8,25.3c2.5,0.8,3.8,3.5,3,6l-12.8,39.5c-0.8,2.5-3.5,3.8-6,3
	l-77.8-25.3C280.1,125.7,278.8,123,279.6,120.5z"/>
<circle class="st20" cx="303.6" cy="103.5" r="9.4"/>
<path class="st20" d="M326,101.8l0.8-2.4l38.8,12.6l-0.8,2.4L326,101.8z"/>
<path class="st20" d="M324,108l0.8-2.4l19.8,6.4l-0.8,2.4L324,108z"/>
<path class="st20" d="M322,114.3l0.8-2.4l32,10.4l-0.8,2.4L322,114.3z"/>
<path class="st20" d="M320,120.5l0.8-2.4l38.8,12.6l-0.8,2.4L320,120.5z"/>
<path class="st14" d="M344.4,140.9l1.5-4.7l10.8,3.5l-1.5,4.7L344.4,140.9z"/>
<path class="st4" d="M272.3,210.3l22.9-35.6c1.2-1.9,3.7-2.4,5.5-1.2l59.1,38c1.9,1.2,2.4,3.7,1.2,5.5l-22.9,35.6
	c-1.2,1.9-3.7,2.4-5.5,1.2l-59.1-38C271.7,214.6,271.1,212.1,272.3,210.3z"/>
<path class="st21" d="M279.9,210.7l7.6-12l2.8,1.8l-7.6,12L279.9,210.7z"/>
<path class="st21" d="M289,213.1l16.8-26.4l2.6,1.6l-16.8,26.4L289,213.1z"/>
<path class="st21" d="M294.5,216.6l16.8-26.4l2.6,1.6l-16.8,26.4L294.5,216.6z"/>
<path class="st21" d="M300,220.1l16.8-26.4l2.6,1.6l-16.8,26.4L300,220.1z"/>
<path class="st21" d="M305.8,225.2l16.9-26.3l2.6,1.7l-16.9,26.3L305.8,225.2z"/>
<path class="st16" d="M311.1,227.2l16.8-26.4l2.6,1.6l-16.8,26.4L311.1,227.2z"/>
<path class="st16" d="M316.6,230.7l16.8-26.4l2.6,1.6l-16.8,26.4L316.6,230.7z"/>
<path class="st21" d="M339.9,215.7l4.3-6.8l6.8,4.3l-4.3,6.8L339.9,215.7z"/>
<path class="st13" d="M269.3,168.8l-45.8,0.5c-1.7,0-3.1,1.4-3.1,3.1v3.8c0,1.7-1.4,3.1-3.1,3.1l-33,0.8c-1.4,0-2.7-0.9-3.1-2.3
	l-1.6-5.7c-0.4-1.4-1.6-2.3-3.1-2.3l-44.1,0.5c-1.7,0-3.1,1.4-3.1,3.2c0,0.2,0,0.3,0,0.5l17.7,104.4c0.3,1.5,1.6,2.6,3.1,2.6
	l139.4,0.6c1.7,0,3.1-1.4,3.1-3.1c0-0.2,0-0.4-0.1-0.6l-20.4-106.5C272.1,169.8,270.8,168.7,269.3,168.8L269.3,168.8z"/>
<path class="st22" d="M269.3,168.8l-45.8,0.5c-1.7,0-3.1,1.4-3.1,3.1v3.8c0,1.7-1.4,3.1-3.1,3.1l-33,0.8c-1.4,0-2.7-0.9-3.1-2.3
	l-1.6-5.7c-0.4-1.4-1.6-2.3-3.1-2.3l-44.1,0.5c-1.7,0-3.1,1.4-3.1,3.2c0,0.2,0,0.3,0,0.5l17.7,104.4c0.3,1.5,1.6,2.6,3.1,2.6
	l139.4,0.6c1.7,0,3.1-1.4,3.1-3.1c0-0.2,0-0.4-0.1-0.6l-20.4-106.5C272.1,169.8,270.8,168.7,269.3,168.8L269.3,168.8z"/>
<linearGradient id="SVGID_00000047060627864754723450000012585707592120320919_" gradientUnits="userSpaceOnUse" x1="-714.0988" y1="717.8166" x2="-714.0988" y2="716.8166" gradientTransform="matrix(163.3623 0 0 -112.7731 116867.9141 81119.1875)">
	<stop  offset="0" style="stop-color:#000000;stop-opacity:0"/>
	<stop  offset="1" style="stop-color:#000000"/>
</linearGradient>
<path style="opacity:0.32;fill:url(#SVGID_00000047060627864754723450000012585707592120320919_);enable-background:new    ;" d="
	M269.3,168.8l-45.8,0.5c-1.7,0-3.1,1.4-3.1,3.1v3.8c0,1.7-1.4,3.1-3.1,3.1l-33,0.8c-1.4,0-2.7-0.9-3.1-2.3l-1.6-5.7
	c-0.4-1.4-1.6-2.3-3.1-2.3l-44.1,0.5c-1.7,0-3.1,1.4-3.1,3.2c0,0.2,0,0.3,0,0.5l17.7,104.4c0.3,1.5,1.6,2.6,3.1,2.6l139.4,0.6
	c1.7,0,3.1-1.4,3.1-3.1c0-0.2,0-0.4-0.1-0.6l-20.4-106.5C272.1,169.8,270.8,168.7,269.3,168.8L269.3,168.8z"/>
<ellipse class="st19" cx="119.6" cy="258.7" rx="4.8" ry="1"/>
<ellipse class="st19" cx="101" cy="260.5" rx="4.8" ry="1"/>
<ellipse class="st19" cx="108.5" cy="265.9" rx="3.4" ry="1"/>
<ellipse class="st19" cx="89.2" cy="265.4" rx="3.4" ry="1"/>
<path class="st13" d="M100.9,260.4c0,0,6.8-22.3-1.1-31.2c-5.9-6.7-12.6-5.9-15.5-5.1c-1.6,0.4-2.9,1.5-3.6,3
	c-1,2.3-0.9,5.9,6.5,10.2c12.3,7.2,13.1,17,13.1,17L100.9,260.4z"/>
<path class="st24" d="M85.4,227.3c0,0,20,6.3,15.5,33.1 M97.1,229.5c0,0-2.8,1.9-1.9,4.7 M87.4,231.2c0,0,1.7-1.7,3.7-0.8
	 M95.3,239.8c0,0,3-1.5,3.7,0.4 M102.6,243c0,0-2.2-0.2-2.3,0.9 M0,0"/>
<path class="st24" d="M91.1,247.8c0,0,8.4,12.1,10,12.6"/>
<path class="st24" d="M90.3,249.7h1.9"/>
<path class="st24" d="M92.7,254.1l3.1,0.1"/>
<path class="st24" d="M94.5,250.6l-0.3,1.6"/>
<path class="st24" d="M97.8,255.4l-0.1,1.4"/>
<path class="st13" d="M101,260.6c0,0,8-16.2,10.1-15.8c1,0.2,1.5,1.2,1.7,2.2c0.3,1.3,0.1,2.7-0.4,3.9
	C111.3,253.5,108.2,258.4,101,260.6z"/>
<path class="st24" d="M111.1,247.8c0,0-8.4,12.1-10,12.6"/>
<path class="st24" d="M111.8,249.7h-1.9"/>
<path class="st24" d="M109.5,254.1l-3.1,0.1"/>
<path class="st24" d="M107.6,250.6l0.3,1.6"/>
<path class="st24" d="M104.4,255.4l0.1,1.4"/>
<path class="st24" d="M0,0"/>
<circle class="st19" cx="84.5" cy="87" r="6.5"/>
<circle class="st19" cx="395.4" cy="138.7" r="6.5"/>
<circle class="st19" cx="279.2" cy="66.5" r="6.5"/>
<circle class="st19" cx="97.4" cy="122.7" r="10.8"/>
<path class="st25" d="M206,209.9c-8,0-14.4,6.5-14.4,14.4s6.5,14.4,14.4,14.4s14.4-6.5,14.4-14.4S214,209.9,206,209.9z"/>
<path class="st26" d="M206,211.6c7,0,12.8,5.7,12.8,12.8c0,7-5.7,12.8-12.8,12.8c-7,0-12.8-5.7-12.8-12.8
	C193.3,217.3,199,211.6,206,211.6"/>
<path class="st13" d="M0,0"/>
</svg>
